<svg width="667" height="667" viewBox="0 0 667 667" fill="none" xmlns="http://www.w3.org/2000/svg">
<path d="M666.667 666.667V0.000121117H0V666.667H666.667Z" fill="white"/>
<path d="M112.581 205.977C110.459 206.941 108.372 207.989 106.325 209.133C63.8588 232.881 52.3562 285.661 57.6973 330.084C64.0526 382.939 94.3978 429.337 102.742 481.767C105.058 496.328 105.856 511.833 113.94 524.163C124.114 539.679 144.091 548.909 158.848 559.46C174.137 570.389 190.677 579.457 209.511 583.484C252.86 592.753 297.624 591.872 341.695 590.957C400.013 589.745 473.937 585.051 522.04 548.424C543.315 532.225 559.901 509.243 565.924 483.191C573.143 451.965 565.249 420.152 564.637 388.708C564.019 356.785 577.629 333.193 587.081 303.568C593.209 284.36 596.123 262.948 588.276 244.376C580.795 226.663 564.351 216.667 553.428 201.74C539.972 183.349 525.731 168.779 507.015 155.063C474.293 131.083 436.909 109.652 396.341 109.681C350.013 109.713 309.024 137.296 267.359 157.555C234.151 173.701 198.888 185.616 162.692 192.919C145.739 196.34 128.227 198.876 112.581 205.977Z" fill="#F2EEB3" fill-opacity="0.63"/>
<path d="M204.853 220.953C217.971 204.695 226.444 183.463 222.797 162.892C217.067 130.565 181.368 109.299 148.707 112.628C122.871 115.26 98.5807 131.167 86.5027 154.156C74.4246 177.144 75.2495 206.583 89.2287 228.468C101.046 246.968 123.32 260.644 145.576 260.887C168.367 261.135 191.135 237.959 204.853 220.953Z" fill="#F2EEB3"/>
<path d="M396.227 347.169C374.016 333.729 354.945 315.185 340.189 293.88C317.904 261.703 305.195 223.492 300.149 184.679C297.469 164.064 296.995 142.476 304.711 123.173C313.955 100.049 335.2 82.1134 359.548 76.88C392.727 69.7494 415.633 85.8814 438.229 107C446.721 114.935 454.079 124.088 463.137 131.368C482.207 146.692 507.036 152.429 528.924 163.355C596.364 197.013 645.132 292.611 580.505 352.705C554.464 376.921 516.549 386.553 481.401 381.143C455.505 377.157 424.409 362.972 401.527 350.247C399.741 349.252 397.973 348.227 396.227 347.169Z" fill="#F2EEB3"/>
<mask id="mask0_11_183" style="mask-type:luminance" maskUnits="userSpaceOnUse" x="56" y="91" width="539" height="501">
<path d="M97.7474 192.739C68.0203 231.401 51.5912 279.299 57.6974 330.084C64.0527 382.939 94.3979 429.337 102.742 481.767C105.058 496.328 105.856 511.833 113.94 524.163C124.114 539.679 144.091 548.909 158.848 559.46C174.137 570.389 190.677 579.457 209.511 583.484C252.86 592.753 297.624 591.872 341.695 590.957C400.013 589.745 473.937 585.051 522.041 548.424C553.547 524.433 564.72 491.771 572.912 454.592C583.036 408.637 589.735 361.928 592.905 314.976C594.684 288.625 595.316 261.805 588.941 236.175C576.588 186.52 538.281 145.893 492.751 122.544C447.22 99.1935 395.06 91.5442 343.892 91.4855C286.696 91.4202 228.559 100.764 177.611 126.755C146.509 142.62 118.796 165.365 97.7474 192.739Z" fill="white"/>
</mask>
<g mask="url(#mask0_11_183)">
<path d="M450.667 478.003L454.105 393.195L333.025 267.296L321.927 478.003H450.667Z" fill="#105773"/>
<path d="M563.696 260.712C564.075 275.414 562.984 290.587 562.121 306.265C560.663 332.792 555.213 389.308 536.975 410.085C527.572 420.799 484.924 418.221 456.069 411.168C435.257 406.081 418.031 389.943 402.544 375.928C388.303 363.04 375.632 349.517 363.663 334.748C351.056 319.188 336.481 306.832 327.791 288.201C323.939 279.943 321.316 271.132 319.637 262.167C313.691 230.412 320.744 195.051 343.295 172.051C397.107 117.164 496.237 131.24 541.441 190.605C558.305 212.752 563.063 236.07 563.696 260.712Z" fill="#105773"/>
<path d="M558.575 270.044L589.365 323.801C591.313 327.203 588.968 331.471 585.069 331.616L554.993 332.736L558.575 270.044Z" fill="#105773"/>
<path d="M530.301 596.632C530.301 521.844 469.673 461.216 394.885 461.216H328.739V596.632H530.301Z" fill="#105773"/>
<path d="M560.721 332.736H547.813" stroke="#132240" stroke-width="1.33333" stroke-miterlimit="10"/>
<path d="M459.751 411.329C449.227 408.292 439.236 403.392 430.372 396.92" stroke="#132240" stroke-width="1.33333" stroke-miterlimit="10"/>
<path d="M350.109 293.669C343.935 289.977 338.799 284.863 335.667 277.624C329.813 264.097 330.751 248.231 332.093 233.901C335.671 195.76 360.767 164.528 397.548 154.459C421.179 147.988 446.368 146.615 470.285 151.935C494.201 157.252 516.765 169.428 533.3 187.511C538.012 192.665 542.281 198.369 544.749 204.901C552.623 225.731 542.749 253.881 527.669 269.175C511.884 285.184 488.137 292.584 465.877 289.424C457.915 288.295 449.86 285.908 441.968 287.46C432.517 289.317 425.004 296.545 419.456 304.417C413.908 312.289 409.727 321.111 403.637 328.572C402.696 329.724 401.652 330.884 400.256 331.395C396.584 332.741 392.932 328.853 392.119 325.027C391.304 321.2 392.041 317.116 390.852 313.389C388.525 306.111 380.053 303 372.555 301.531C364.679 299.988 356.788 297.663 350.109 293.669Z" fill="white"/>
<path d="M551.676 278.236C551.676 278.236 546.507 291.051 528.163 290.473C510.04 289.905 504.649 278.236 504.649 278.236" stroke="#132240" stroke-width="1.33333" stroke-miterlimit="10" stroke-linecap="round"/>
<path d="M539.757 220.857C545.98 212.561 539.205 200.259 531.601 194.181C530.755 193.504 522.472 189.568 522.473 189.58C521.057 178.976 510.697 170.36 500.013 170.899C492.76 158.828 476.279 153.291 463.208 158.532C451.155 149.213 432.283 150.289 421.365 160.919C411.276 156.147 397.851 160.379 392.32 170.075C385.683 168.233 378.329 170.537 373.093 175.015C367.86 179.493 364.557 185.893 362.691 192.525C353.088 195.288 346.724 206.32 349.139 216.016C341.648 219.765 337.712 229.404 340.436 237.323C334.735 243.171 333.383 252.808 337.255 260C338.064 261.501 339.084 262.925 339.504 264.577C339.887 266.079 339.747 267.655 339.812 269.203C340.115 276.251 345.216 282.839 351.963 284.896C358.709 286.955 366.62 284.333 370.804 278.655C379.207 280.835 386.912 283.892 395.592 283.913C404.273 283.935 413.192 281.86 420.123 276.632C427.896 283.175 440.327 283.331 448.261 276.983C454.891 282.968 463.897 286.247 472.823 285.923C481.749 285.599 490.495 281.679 496.673 275.228C501.704 269.977 505.036 261.892 501.696 255.432C511.28 256.768 521.108 254.355 529.248 249.2C535.808 245.047 544.681 239.879 541.077 230.371C540.117 227.837 538.008 225.881 535.661 224.528C537.403 223.439 538.749 222.2 539.757 220.857Z" stroke="#334A33" stroke-width="1.33333" stroke-miterlimit="10" stroke-linecap="round" stroke-linejoin="round"/>
<path d="M368.915 214.507C367.472 215.329 366.377 216.648 365.453 218.027C361.457 223.987 360.127 231.665 361.884 238.621" stroke="#334A33" stroke-width="1.33333" stroke-miterlimit="10" stroke-linecap="round" stroke-linejoin="round"/>
<path d="M357.113 251.939C360.776 256.571 366.933 259.097 372.795 258.373C367.792 260.277 363.709 264.463 361.929 269.511" stroke="#334A33" stroke-width="1.33333" stroke-miterlimit="10" stroke-linecap="round" stroke-linejoin="round"/>
<path d="M389.511 191.22C379.456 191.027 369.681 198.028 366.629 207.609" stroke="#334A33" stroke-width="1.33333" stroke-miterlimit="10" stroke-linecap="round" stroke-linejoin="round"/>
<path d="M361.004 233.493C358.576 233.983 356.325 235.313 354.729 237.208C353.132 239.101 352.199 241.543 352.127 244.019" stroke="#334A33" stroke-width="1.33333" stroke-miterlimit="10" stroke-linecap="round" stroke-linejoin="round"/>
<path d="M420.491 209.789C417.165 204.295 409.979 201.561 403.772 203.213C397.565 204.864 392.749 210.628 391.965 217.003" stroke="#334A33" stroke-width="1.33333" stroke-miterlimit="10" stroke-linecap="round" stroke-linejoin="round"/>
<path d="M503.1 258.608C500.213 248.928 494.017 240.024 485.211 235.075C476.405 230.124 464.939 229.607 456.301 234.844C451.556 227.789 443.737 222.881 435.32 221.675C426.904 220.468 418.021 222.981 411.484 228.419" stroke="#334A33" stroke-width="1.33333" stroke-miterlimit="10" stroke-linecap="round" stroke-linejoin="round"/>
<path d="M484.849 251.873C480.324 255.336 474.328 256.803 468.716 255.821C463.104 254.839 457.963 251.423 454.881 246.629C452.649 249.835 448.467 250.967 444.592 251.468C441.804 251.829 438.943 251.98 436.2 251.355C433.46 250.729 430.825 249.248 429.279 246.899C423.477 251.323 415.801 253.196 408.615 251.944C401.428 250.689 394.839 246.327 390.879 240.199C388.485 236.495 387.056 232.265 385.648 228.085" stroke="#334A33" stroke-width="1.33333" stroke-miterlimit="10" stroke-linecap="round" stroke-linejoin="round"/>
<path d="M402.965 265.376C413.776 267.143 425.247 264.452 434.143 258.061" stroke="#334A33" stroke-width="1.33333" stroke-miterlimit="10" stroke-linecap="round" stroke-linejoin="round"/>
<path d="M477.523 255.575C480.683 259.976 481.073 265.716 478.995 270.72" stroke="#334A33" stroke-width="1.33333" stroke-miterlimit="10" stroke-linecap="round" stroke-linejoin="round"/>
<path d="M426.907 262.139C427.739 262.727 428.452 263.464 429.239 264.111C431.523 265.992 434.379 267.077 437.287 267.625C440.193 268.173 443.172 268.212 446.131 268.193" stroke="#334A33" stroke-width="1.33333" stroke-miterlimit="10" stroke-linecap="round" stroke-linejoin="round"/>
<path d="M385.785 219.471C387.597 227.013 384.816 235.472 378.879 240.467" stroke="#334A33" stroke-width="1.33333" stroke-miterlimit="10" stroke-linecap="round" stroke-linejoin="round"/>
<path d="M387.185 200.116C391.297 200.913 395.677 202.124 398.279 205.407" stroke="#334A33" stroke-width="1.33333" stroke-miterlimit="10" stroke-linecap="round" stroke-linejoin="round"/>
<path d="M413.749 204.091C413.281 204.159 412.857 204.395 412.456 204.644C407.772 207.559 404.791 213.024 404.875 218.54" stroke="#334A33" stroke-width="1.33333" stroke-miterlimit="10" stroke-linecap="round" stroke-linejoin="round"/>
<path d="M497.751 192.828C493.551 196.075 490.565 200.857 489.491 206.056C488.565 210.545 489.031 215.199 489.716 219.731C489.696 219.452 489.677 219.173 489.657 218.895" stroke="#334A33" stroke-width="1.33333" stroke-miterlimit="10" stroke-linecap="round" stroke-linejoin="round"/>
<path d="M461.163 188.864C463.016 192.257 464.719 195.783 465.545 199.56C466.371 203.336 466.261 207.419 464.597 210.908" stroke="#334A33" stroke-width="1.33333" stroke-miterlimit="10" stroke-linecap="round" stroke-linejoin="round"/>
<path d="M491.444 200.665C490.524 196.968 488.548 193.54 485.811 190.889" stroke="#334A33" stroke-width="1.33333" stroke-miterlimit="10" stroke-linecap="round" stroke-linejoin="round"/>
<path d="M488.971 210.999C485.879 212.021 483.081 213.921 480.988 216.417" stroke="#334A33" stroke-width="1.33333" stroke-miterlimit="10" stroke-linecap="round" stroke-linejoin="round"/>
<path d="M465.793 198.379C467.091 195.187 469.601 192.505 472.7 190.999" stroke="#334A33" stroke-width="1.33333" stroke-miterlimit="10" stroke-linecap="round" stroke-linejoin="round"/>
<path d="M431.208 164.575C431.169 170.237 433.199 175.892 436.831 180.237C440.461 184.584 445.665 187.587 451.245 188.557" stroke="#334A33" stroke-width="1.33333" stroke-miterlimit="10" stroke-linecap="round" stroke-linejoin="round"/>
<path d="M404.021 178.255C410.817 175.532 419.033 178.327 423.831 183.857C428.628 189.388 430.328 197.112 429.751 204.412" stroke="#334A33" stroke-width="1.33333" stroke-miterlimit="10" stroke-linecap="round" stroke-linejoin="round"/>
<path d="M443.645 186.167C445.693 188.265 447.007 191.067 447.311 193.983C447.616 196.899 446.911 199.911 445.341 202.388" stroke="#334A33" stroke-width="1.33333" stroke-miterlimit="10" stroke-linecap="round" stroke-linejoin="round"/>
<path d="M418.184 179.26C418.569 175.24 416.833 171.076 413.707 168.519" stroke="#334A33" stroke-width="1.33333" stroke-miterlimit="10" stroke-linecap="round" stroke-linejoin="round"/>
<path d="M517.301 216.267C521.685 218.939 524.343 224.127 524.167 229.257C523.991 234.388 521.076 239.299 516.772 242.097" stroke="#334A33" stroke-width="1.33333" stroke-miterlimit="10" stroke-linecap="round" stroke-linejoin="round"/>
<path d="M513.623 204.877C514.625 197.851 511.929 190.4 506.663 185.641C501.396 180.884 493.712 178.955 486.823 180.663" stroke="#334A33" stroke-width="1.33333" stroke-miterlimit="10" stroke-linecap="round" stroke-linejoin="round"/>
<path d="M493.601 179.805C489.863 174.501 483.817 170.885 477.376 170.099C470.933 169.313 464.196 171.372 459.293 175.623" stroke="#334A33" stroke-width="1.33333" stroke-miterlimit="10" stroke-linecap="round" stroke-linejoin="round"/>
<path d="M523.817 223.524C528.565 221.889 532.245 217.488 533.013 212.525" stroke="#334A33" stroke-width="1.33333" stroke-miterlimit="10" stroke-linecap="round" stroke-linejoin="round"/>
<path d="M522.956 234.861C523.312 235.473 523.955 235.853 524.469 236.34C525.811 237.612 526.223 239.555 526.569 241.371" stroke="#334A33" stroke-width="1.33333" stroke-miterlimit="10" stroke-linecap="round" stroke-linejoin="round"/>
<path d="M488.911 237.813C490.823 232.297 494.315 227.339 498.865 223.68" stroke="#334A33" stroke-width="1.33333" stroke-miterlimit="10" stroke-linecap="round" stroke-linejoin="round"/>
<path d="M496.963 245.191C500.365 243.623 503.565 241.613 506.456 239.229" stroke="#334A33" stroke-width="1.33333" stroke-miterlimit="10" stroke-linecap="round" stroke-linejoin="round"/>
<path d="M469.66 231.104C469.4 229.228 469.407 227.317 469.68 225.444" stroke="#334A33" stroke-width="1.33333" stroke-miterlimit="10" stroke-linecap="round" stroke-linejoin="round"/>
<path d="M364.66 283.621C364.192 287.144 365.795 290.736 368.324 293.232C370.855 295.728 374.212 297.239 377.645 298.16C388.265 301.009 400.035 298.413 408.968 292.001C410.835 290.661 412.633 289.112 413.705 287.08C414.779 285.047 415.004 282.439 413.769 280.5" stroke="#334A33" stroke-width="1.33333" stroke-miterlimit="10" stroke-linecap="round" stroke-linejoin="round"/>
<path d="M434.756 281.872C420.951 289.743 410.172 302.779 405.036 317.817C404.195 320.284 403.064 323.217 400.505 323.717C398.469 324.116 396.435 322.589 395.607 320.687C394.779 318.783 394.891 316.613 395.144 314.553C395.876 308.597 398.603 302.036 401.351 296.703" stroke="#334A33" stroke-width="1.33333" stroke-miterlimit="10" stroke-linecap="round" stroke-linejoin="round"/>
<path d="M371.885 287.025C373.125 288.535 374.719 289.749 376.503 290.543C380.805 292.455 385.748 291.823 390.431 292.303" stroke="#334A33" stroke-width="1.33333" stroke-miterlimit="10" stroke-linecap="round" stroke-linejoin="round"/>
<path d="M331.109 478.003V276.215L330.639 267.296L209.557 393.195L212.997 478.003H331.109Z" fill="#132240"/>
<path d="M331.109 185.708C328.027 180.813 324.461 176.223 320.369 172.051C266.557 117.164 167.427 131.24 122.223 190.605C105.359 212.752 100.602 236.069 99.9683 260.712C99.5907 275.413 100.68 290.587 101.542 306.265C103.002 332.792 111.552 384.873 121.763 410.565C123.3 414.433 178.74 418.221 207.595 411.168C228.407 406.081 245.633 389.943 261.119 375.928C275.361 363.04 288.032 349.517 300 334.748C310.529 321.752 322.411 310.972 331.109 296.924V185.708Z" fill="#132240"/>
<path d="M105.091 270.044L74.299 323.801C72.3506 327.203 74.6959 331.471 78.5954 331.616L108.67 332.736L105.091 270.044Z" fill="#132240"/>
<path d="M331.109 596.632V460.096H265.199C190.411 460.096 129.783 520.724 129.783 595.512C129.783 595.887 129.794 596.257 129.797 596.632H331.109Z" fill="#132240"/>
<path d="M200.24 154.115H233.325L243.549 164.151" stroke="#105773" stroke-width="1.33333" stroke-miterlimit="10"/>
<path d="M243.893 153.889L253.313 163.137H279.505" stroke="#105773" stroke-width="1.33333" stroke-miterlimit="10"/>
<path d="M191.739 159.528H215.173L227.925 172.045" stroke="#105773" stroke-width="1.33333" stroke-miterlimit="10"/>
<path d="M225.283 175.316L232.176 182.083H249.867L254.921 177.12" stroke="#105773" stroke-width="1.33333" stroke-miterlimit="10"/>
<path d="M224.824 159.077L237 171.031H260.665" stroke="#105773" stroke-width="1.33333" stroke-miterlimit="10"/>
<path d="M290.075 162.235L280.195 171.932" stroke="#105773" stroke-width="1.33333" stroke-miterlimit="10"/>
<path d="M272.383 168.549L252.739 187.833L228.729 187.495L206.903 166.52H183.468" stroke="#105773" stroke-width="1.33333" stroke-miterlimit="10"/>
<path d="M194.956 170.353L207.363 182.533" stroke="#105773" stroke-width="1.33333" stroke-miterlimit="10"/>
<path d="M164.857 167.196H177.035L198.401 188.172" stroke="#105773" stroke-width="1.33333" stroke-miterlimit="10"/>
<path d="M158.195 172.159H174.507L183.697 181.18" stroke="#105773" stroke-width="1.33333" stroke-miterlimit="10"/>
<path d="M152.221 178.248H167.385L176.116 186.819H188.981" stroke="#105773" stroke-width="1.33333" stroke-miterlimit="10"/>
<path d="M216.783 184.337L208.741 192.231H182.779L164.168 210.5" stroke="#105773" stroke-width="1.33333" stroke-miterlimit="10"/>
<path d="M157.276 184.563L168.419 195.501" stroke="#105773" stroke-width="1.33333" stroke-miterlimit="10"/>
<path d="M148.315 186.367L162.675 200.464" stroke="#105773" stroke-width="1.33333" stroke-miterlimit="10"/>
<path d="M146.707 194.937L157.161 205.2V229.671L169.511 241.795" stroke="#105773" stroke-width="1.33333" stroke-miterlimit="10"/>
<path d="M149.695 195.051C149.695 196.857 148.203 198.321 146.361 198.321C144.523 198.321 143.031 196.857 143.031 195.051C143.031 193.244 144.523 191.78 146.361 191.78C148.203 191.78 149.695 193.244 149.695 195.051Z" fill="#105773"/>
<path d="M142.916 215.688C142.916 217.495 141.424 218.959 139.584 218.959C137.745 218.959 136.253 217.495 136.253 215.688C136.253 213.881 137.745 212.417 139.584 212.417C141.424 212.417 142.916 213.881 142.916 215.688Z" fill="#105773"/>
<path d="M156.127 178.812C156.127 180.617 154.636 182.083 152.796 182.083C150.956 182.083 149.464 180.617 149.464 178.812C149.464 177.005 150.956 175.541 152.796 175.541C154.636 175.541 156.127 177.005 156.127 178.812Z" fill="#105773"/>
<path d="M161.181 184.676C161.181 186.481 159.691 187.945 157.851 187.945C156.011 187.945 154.519 186.481 154.519 184.676C154.519 182.869 156.011 181.405 157.851 181.405C159.691 181.405 161.181 182.869 161.181 184.676Z" fill="#105773"/>
<path d="M167.04 201.253C167.04 203.059 165.549 204.524 163.709 204.524C161.869 204.524 160.377 203.059 160.377 201.253C160.377 199.447 161.869 197.983 163.709 197.983C165.549 197.983 167.04 199.447 167.04 201.253Z" fill="#105773"/>
<path d="M149.464 243.429C149.464 245.236 147.972 246.7 146.133 246.7C144.293 246.7 142.801 245.236 142.801 243.429C142.801 241.623 144.293 240.159 146.133 240.159C147.972 240.159 149.464 241.623 149.464 243.429Z" fill="#105773"/>
<path d="M152.796 186.367C152.796 188.173 151.304 189.637 149.464 189.637C147.624 189.637 146.133 188.173 146.133 186.367C146.133 184.561 147.624 183.097 149.464 183.097C151.304 183.097 152.796 184.561 152.796 186.367Z" fill="#105773"/>
<path d="M171.751 195.501C171.751 197.308 170.259 198.772 168.419 198.772C166.579 198.772 165.087 197.308 165.087 195.501C165.087 193.695 166.579 192.231 168.419 192.231C170.259 192.231 171.751 193.695 171.751 195.501Z" fill="#105773"/>
<path d="M140.619 205.539C140.619 207.344 139.127 208.808 137.287 208.808C135.447 208.808 133.956 207.344 133.956 205.539C133.956 203.732 135.447 202.268 137.287 202.268C139.127 202.268 140.619 203.732 140.619 205.539Z" fill="#105773"/>
<path d="M136.024 223.356C136.024 225.163 134.532 226.627 132.692 226.627C130.852 226.627 129.36 225.163 129.36 223.356C129.36 221.551 130.852 220.085 132.692 220.085C134.532 220.085 136.024 221.551 136.024 223.356Z" fill="#105773"/>
<path d="M201.963 186.819C201.963 188.624 200.472 190.088 198.632 190.088C196.792 190.088 195.3 188.624 195.3 186.819C195.3 185.012 196.792 183.548 198.632 183.548C200.472 183.548 201.963 185.012 201.963 186.819Z" fill="#105773"/>
<path d="M195.989 159.528C195.989 161.333 194.499 162.799 192.659 162.799C190.819 162.799 189.327 161.333 189.327 159.528C189.327 157.721 190.819 156.257 192.659 156.257C194.499 156.257 195.989 157.721 195.989 159.528Z" fill="#105773"/>
<path d="M247.224 153.664C247.224 155.471 245.733 156.935 243.893 156.935C242.053 156.935 240.561 155.471 240.561 153.664C240.561 151.857 242.053 150.393 243.893 150.393C245.733 150.393 247.224 151.857 247.224 153.664Z" fill="#105773"/>
<path d="M228.615 159.753C228.615 161.559 227.123 163.024 225.283 163.024C223.444 163.024 221.952 161.559 221.952 159.753C221.952 157.947 223.444 156.483 225.283 156.483C227.123 156.483 228.615 157.947 228.615 159.753Z" fill="#105773"/>
<path d="M246.713 164.045C246.713 165.851 245.223 167.315 243.383 167.315C241.543 167.315 240.051 165.851 240.051 164.045C240.051 162.239 241.543 160.775 243.383 160.775C245.223 160.775 246.713 162.239 246.713 164.045Z" fill="#105773"/>
<path d="M257.104 177.345C257.104 179.152 255.612 180.616 253.773 180.616C251.933 180.616 250.441 179.152 250.441 177.345C250.441 175.539 251.933 174.075 253.773 174.075C255.612 174.075 257.104 175.539 257.104 177.345Z" fill="#105773"/>
<path d="M221.263 193.133C221.263 194.94 219.771 196.404 217.931 196.404C216.091 196.404 214.6 194.94 214.6 193.133C214.6 191.328 216.091 189.863 217.931 189.863C219.771 189.863 221.263 191.328 221.263 193.133Z" fill="#105773"/>
<path d="M209.775 214.335C209.775 216.14 208.283 217.605 206.444 217.605C204.604 217.605 203.112 216.14 203.112 214.335C203.112 212.528 204.604 211.064 206.444 211.064C208.283 211.064 209.775 212.528 209.775 214.335Z" fill="#105773"/>
<path d="M177.609 219.523C177.609 221.328 176.117 222.792 174.277 222.792C172.437 222.792 170.945 221.328 170.945 219.523C170.945 217.716 172.437 216.251 174.277 216.251C176.117 216.251 177.609 217.716 177.609 219.523Z" fill="#105773"/>
<path d="M220.113 184.337C220.113 186.143 218.623 187.608 216.783 187.608C214.943 187.608 213.451 186.143 213.451 184.337C213.451 182.531 214.943 181.067 216.783 181.067C218.623 181.067 220.113 182.531 220.113 184.337Z" fill="#105773"/>
<path d="M199.895 215.236C199.895 217.043 198.404 218.507 196.564 218.507C194.724 218.507 193.232 217.043 193.232 215.236C193.232 213.431 194.724 211.967 196.564 211.967C198.404 211.967 199.895 213.431 199.895 215.236Z" fill="#105773"/>
<path d="M263.997 171.031C263.997 172.836 262.505 174.301 260.665 174.301C258.825 174.301 257.333 172.836 257.333 171.031C257.333 169.224 258.825 167.76 260.665 167.76C262.505 167.76 263.997 169.224 263.997 171.031Z" fill="#105773"/>
<path d="M292.945 162.46C292.945 164.265 291.455 165.729 289.615 165.729C287.775 165.729 286.283 164.265 286.283 162.46C286.283 160.653 287.775 159.189 289.615 159.189C291.455 159.189 292.945 160.653 292.945 162.46Z" fill="#105773"/>
<path d="M308.111 179.376C308.111 181.181 306.619 182.645 304.779 182.645C302.939 182.645 301.447 181.181 301.447 179.376C301.447 177.569 302.939 176.105 304.779 176.105C306.619 176.105 308.111 177.569 308.111 179.376Z" fill="#105773"/>
<path d="M300.299 169.903C300.299 171.709 298.807 173.173 296.967 173.173C295.127 173.173 293.636 171.709 293.636 169.903C293.636 168.096 295.127 166.632 296.967 166.632C298.807 166.632 300.299 168.096 300.299 169.903Z" fill="#105773"/>
<path d="M282.837 163.137C282.837 164.943 281.345 166.407 279.505 166.407C277.665 166.407 276.173 164.943 276.173 163.137C276.173 161.331 277.665 159.865 279.505 159.865C281.345 159.865 282.837 161.331 282.837 163.137Z" fill="#105773"/>
<path d="M275.715 168.549C275.715 170.356 274.223 171.82 272.383 171.82C270.543 171.82 269.052 170.356 269.052 168.549C269.052 166.743 270.543 165.279 272.383 165.279C274.223 165.279 275.715 166.743 275.715 168.549Z" fill="#105773"/>
<path d="M283.527 171.932C283.527 173.739 282.035 175.203 280.195 175.203C278.355 175.203 276.863 173.739 276.863 171.932C276.863 170.127 278.355 168.663 280.195 168.663C282.035 168.663 283.527 170.127 283.527 171.932Z" fill="#105773"/>
<path d="M285.824 192.683C285.824 194.488 284.332 195.952 282.492 195.952C280.652 195.952 279.161 194.488 279.161 192.683C279.161 190.876 280.652 189.412 282.492 189.412C284.332 189.412 285.824 190.876 285.824 192.683Z" fill="#105773"/>
<path d="M229.993 174.188C229.993 175.995 228.501 177.459 226.661 177.459C224.821 177.459 223.331 175.995 223.331 174.188C223.331 172.381 224.821 170.917 226.661 170.917C228.501 170.917 229.993 172.381 229.993 174.188Z" fill="#105773"/>
<path d="M212.303 223.356C212.303 225.163 210.811 226.627 208.971 226.627C207.131 226.627 205.639 225.163 205.639 223.356C205.639 221.551 207.131 220.085 208.971 220.085C210.811 220.085 212.303 221.551 212.303 223.356Z" fill="#105773"/>
<path d="M167.729 210.275C167.729 212.081 166.239 213.545 164.399 213.545C162.557 213.545 161.067 212.081 161.067 210.275C161.067 208.469 162.557 207.004 164.399 207.004C166.239 207.004 167.729 208.469 167.729 210.275Z" fill="#105773"/>
<path d="M210.695 182.533C210.695 184.339 209.203 185.804 207.363 185.804C205.523 185.804 204.031 184.339 204.031 182.533C204.031 180.727 205.523 179.263 207.363 179.263C209.203 179.263 210.695 180.727 210.695 182.533Z" fill="#105773"/>
<path d="M198.976 171.031C198.976 172.836 197.484 174.301 195.644 174.301C193.805 174.301 192.313 172.836 192.313 171.031C192.313 169.224 193.805 167.76 195.644 167.76C197.484 167.76 198.976 169.224 198.976 171.031Z" fill="#105773"/>
<path d="M192.313 186.819C192.313 188.624 190.821 190.088 188.981 190.088C187.141 190.088 185.651 188.624 185.651 186.819C185.651 185.012 187.141 183.548 188.981 183.548C190.821 183.548 192.313 185.012 192.313 186.819Z" fill="#105773"/>
<path d="M161.985 172.159C161.985 173.964 160.495 175.428 158.655 175.428C156.815 175.428 155.323 173.964 155.323 172.159C155.323 170.352 156.815 168.888 158.655 168.888C160.495 168.888 161.985 170.352 161.985 172.159Z" fill="#105773"/>
<path d="M168.189 167.196C168.189 169.003 166.697 170.467 164.857 170.467C163.017 170.467 161.527 169.003 161.527 167.196C161.527 165.389 163.017 163.925 164.857 163.925C166.697 163.925 168.189 165.389 168.189 167.196Z" fill="#105773"/>
<path d="M187.948 166.295C187.948 168.1 186.456 169.564 184.616 169.564C182.777 169.564 181.285 168.1 181.285 166.295C181.285 164.488 182.777 163.024 184.616 163.024C186.456 163.024 187.948 164.488 187.948 166.295Z" fill="#105773"/>
<path d="M203.112 154.115C203.112 155.921 201.62 157.385 199.78 157.385C197.941 157.385 196.449 155.921 196.449 154.115C196.449 152.308 197.941 150.844 199.78 150.844C201.62 150.844 203.112 152.308 203.112 154.115Z" fill="#105773"/>
<path d="M173.129 241.512C173.129 243.319 171.637 244.783 169.797 244.783C167.957 244.783 166.467 243.319 166.467 241.512C166.467 239.705 167.957 238.241 169.797 238.241C171.637 238.241 173.129 239.705 173.129 241.512Z" fill="#105773"/>
<path d="M166.925 223.469C166.925 225.275 165.433 226.739 163.593 226.739C161.753 226.739 160.263 225.275 160.263 223.469C160.263 221.663 161.753 220.199 163.593 220.199C165.433 220.199 166.925 221.663 166.925 223.469Z" fill="#105773"/>
<path d="M173.129 230.912C173.129 232.719 171.637 234.183 169.797 234.183C167.957 234.183 166.467 232.719 166.467 230.912C166.467 229.105 167.957 227.641 169.797 227.641C171.637 227.641 173.129 229.105 173.129 230.912Z" fill="#105773"/>
<path d="M179.792 235.648C179.792 237.455 178.3 238.919 176.46 238.919C174.62 238.919 173.129 237.455 173.129 235.648C173.129 233.841 174.62 232.377 176.46 232.377C178.3 232.377 179.792 233.841 179.792 235.648Z" fill="#105773"/>
<path d="M194.381 241.625C194.381 243.431 192.889 244.895 191.049 244.895C189.209 244.895 187.719 243.431 187.719 241.625C187.719 239.819 189.209 238.355 191.049 238.355C192.889 238.355 194.381 239.819 194.381 241.625Z" fill="#105773"/>
<path d="M254.577 240.497C254.577 242.304 253.085 243.768 251.245 243.768C249.405 243.768 247.915 242.304 247.915 240.497C247.915 238.691 249.405 237.227 251.245 237.227C253.085 237.227 254.577 238.691 254.577 240.497Z" fill="#105773"/>
<path d="M269.511 195.615C269.511 197.42 268.02 198.885 266.18 198.885C264.34 198.885 262.848 197.42 262.848 195.615C262.848 193.808 264.34 192.344 266.18 192.344C268.02 192.344 269.511 193.808 269.511 195.615Z" fill="#105773"/>
<path d="M277.323 177.796C277.323 179.603 275.832 181.067 273.992 181.067C272.152 181.067 270.66 179.603 270.66 177.796C270.66 175.991 272.152 174.527 273.992 174.527C275.832 174.527 277.323 175.991 277.323 177.796Z" fill="#105773"/>
<path d="M246.765 248.616C246.765 250.423 245.275 251.888 243.433 251.888C241.593 251.888 240.103 250.423 240.103 248.616C240.103 246.811 241.593 245.347 243.433 245.347C245.275 245.347 246.765 246.811 246.765 248.616Z" fill="#105773"/>
<path d="M249.523 293.725C249.523 295.531 248.031 296.996 246.191 296.996C244.351 296.996 242.86 295.531 242.86 293.725C242.86 291.919 244.351 290.455 246.191 290.455C248.031 290.455 249.523 291.919 249.523 293.725Z" fill="#105773"/>
<path d="M261.929 346.503C261.929 348.308 260.437 349.772 258.597 349.772C256.757 349.772 255.267 348.308 255.267 346.503C255.267 344.695 256.757 343.232 258.597 343.232C260.437 343.232 261.929 344.695 261.929 346.503Z" fill="#105773"/>
<path d="M278.127 313.179C278.127 314.984 276.636 316.448 274.796 316.448C272.956 316.448 271.464 314.984 271.464 313.179C271.464 311.372 272.956 309.908 274.796 309.908C276.636 309.908 278.127 311.372 278.127 313.179Z" fill="#105773"/>
<path d="M321.665 281.095C321.665 282.901 320.173 284.365 318.333 284.365C316.495 284.365 315.003 282.901 315.003 281.095C315.003 279.288 316.495 277.824 318.333 277.824C320.173 277.824 321.665 279.288 321.665 281.095Z" fill="#105773"/>
<path d="M321.436 270.043C321.436 271.849 319.944 273.313 318.104 273.313C316.264 273.313 314.773 271.849 314.773 270.043C314.773 268.237 316.264 266.773 318.104 266.773C319.944 266.773 321.436 268.237 321.436 270.043Z" fill="#105773"/>
<path d="M309.848 270.073C309.848 271.88 308.356 273.344 306.516 273.344C304.676 273.344 303.184 271.88 303.184 270.073C303.184 268.267 304.676 266.803 306.516 266.803C308.356 266.803 309.848 268.267 309.848 270.073Z" fill="#105773"/>
<path d="M295.416 257.019C295.416 258.824 293.924 260.288 292.084 260.288C290.245 260.288 288.753 258.824 288.753 257.019C288.753 255.212 290.245 253.748 292.084 253.748C293.924 253.748 295.416 255.212 295.416 257.019Z" fill="#105773"/>
<path d="M321.895 260.119C321.895 261.925 320.404 263.389 318.564 263.389C316.724 263.389 315.232 261.925 315.232 260.119C315.232 258.313 316.724 256.849 318.564 256.849C320.404 256.849 321.895 258.313 321.895 260.119Z" fill="#105773"/>
<path d="M316.381 197.193C316.381 199 314.889 200.464 313.049 200.464C311.209 200.464 309.719 199 309.719 197.193C309.719 195.387 311.209 193.923 313.049 193.923C314.889 193.923 316.381 195.387 316.381 197.193Z" fill="#105773"/>
<path d="M278.472 199.223C278.472 201.029 276.98 202.493 275.14 202.493C273.3 202.493 271.808 201.029 271.808 199.223C271.808 197.417 273.3 195.952 275.14 195.952C276.98 195.952 278.472 197.417 278.472 199.223Z" fill="#105773"/>
<path d="M315.463 186.819C315.463 188.624 313.971 190.088 312.131 190.088C310.291 190.088 308.8 188.624 308.8 186.819C308.8 185.012 310.291 183.548 312.131 183.548C313.971 183.548 315.463 185.012 315.463 186.819Z" fill="#105773"/>
<path d="M267.903 239.144C267.903 240.949 266.412 242.415 264.572 242.415C262.732 242.415 261.24 240.949 261.24 239.144C261.24 237.337 262.732 235.873 264.572 235.873C266.412 235.873 267.903 237.337 267.903 239.144Z" fill="#105773"/>
<path d="M298.691 290.568C298.691 292.373 297.199 293.837 295.359 293.837C293.519 293.837 292.028 292.373 292.028 290.568C292.028 288.761 293.519 287.297 295.359 287.297C297.199 287.297 298.691 288.761 298.691 290.568Z" fill="#105773"/>
<path d="M282.221 291.985C282.221 293.792 280.729 295.256 278.889 295.256C277.051 295.256 275.559 293.792 275.559 291.985C275.559 290.18 277.051 288.716 278.889 288.716C280.729 288.716 282.221 290.18 282.221 291.985Z" fill="#105773"/>
<path d="M309.719 282.448C309.719 284.253 308.227 285.719 306.387 285.719C304.547 285.719 303.056 284.253 303.056 282.448C303.056 280.641 304.547 279.177 306.387 279.177C308.227 279.177 309.719 280.641 309.719 282.448Z" fill="#105773"/>
<path d="M327.869 246.361C327.869 248.167 326.377 249.632 324.537 249.632C322.697 249.632 321.205 248.167 321.205 246.361C321.205 244.556 322.697 243.091 324.537 243.091C326.377 243.091 327.869 244.556 327.869 246.361Z" fill="#105773"/>
<path d="M322.355 251.605C322.355 253.412 320.863 254.876 319.024 254.876C317.184 254.876 315.692 253.412 315.692 251.605C315.692 249.799 317.184 248.335 319.024 248.335C320.863 248.335 322.355 249.799 322.355 251.605Z" fill="#105773"/>
<path d="M298.691 236.663C298.691 238.469 297.199 239.933 295.359 239.933C293.519 239.933 292.028 238.469 292.028 236.663C292.028 234.857 293.519 233.392 295.359 233.392C297.199 233.392 298.691 234.857 298.691 236.663Z" fill="#105773"/>
<path d="M324.423 214.335C324.423 216.14 322.931 217.605 321.091 217.605C319.251 217.605 317.76 216.14 317.76 214.335C317.76 212.528 319.251 211.064 321.091 211.064C322.931 211.064 324.423 212.528 324.423 214.335Z" fill="#105773"/>
<path d="M306.732 205.539C306.732 207.344 305.24 208.808 303.4 208.808C301.56 208.808 300.068 207.344 300.068 205.539C300.068 203.732 301.56 202.268 303.4 202.268C305.24 202.268 306.732 203.732 306.732 205.539Z" fill="#105773"/>
<path d="M300.068 224.032C300.068 225.839 298.577 227.303 296.737 227.303C294.897 227.303 293.405 225.839 293.405 224.032C293.405 222.227 294.897 220.763 296.737 220.763C298.577 220.763 300.068 222.227 300.068 224.032Z" fill="#105773"/>
<path d="M287.432 224.032C287.432 225.839 285.941 227.303 284.101 227.303C282.261 227.303 280.769 225.839 280.769 224.032C280.769 222.227 282.261 220.763 284.101 220.763C285.941 220.763 287.432 222.227 287.432 224.032Z" fill="#105773"/>
<path d="M290.419 205.539C290.419 207.344 288.927 208.808 287.087 208.808C285.248 208.808 283.756 207.344 283.756 205.539C283.756 203.732 285.248 202.268 287.087 202.268C288.927 202.268 290.419 203.732 290.419 205.539Z" fill="#105773"/>
<path d="M262.389 219.296C262.389 221.103 260.897 222.567 259.057 222.567C257.217 222.567 255.725 221.103 255.725 219.296C255.725 217.491 257.217 216.027 259.057 216.027C260.897 216.027 262.389 217.491 262.389 219.296Z" fill="#105773"/>
<path d="M272.399 220.333C272.399 222.14 270.907 223.604 269.067 223.604C267.227 223.604 265.736 222.14 265.736 220.333C265.736 218.528 267.227 217.063 269.067 217.063C270.907 217.063 272.399 218.528 272.399 220.333Z" fill="#105773"/>
<path d="M280.721 231.701C280.721 233.507 279.229 234.972 277.389 234.972C275.551 234.972 274.059 233.507 274.059 231.701C274.059 229.895 275.551 228.431 277.389 228.431C279.229 228.431 280.721 229.895 280.721 231.701Z" fill="#105773"/>
<path d="M306.501 236.381C306.501 238.188 305.011 239.652 303.171 239.652C301.331 239.652 299.839 238.188 299.839 236.381C299.839 234.575 301.331 233.111 303.171 233.111C305.011 233.111 306.501 234.575 306.501 236.381Z" fill="#105773"/>
<path d="M313.567 242.977C313.567 244.784 312.076 246.249 310.235 246.249C308.395 246.249 306.904 244.784 306.904 242.977C306.904 241.172 308.395 239.708 310.235 239.708C312.076 239.708 313.567 241.172 313.567 242.977Z" fill="#105773"/>
<path d="M265.376 271.621C265.376 273.428 263.884 274.892 262.044 274.892C260.204 274.892 258.713 273.428 258.713 271.621C258.713 269.816 260.204 268.352 262.044 268.352C263.884 268.352 265.376 269.816 265.376 271.621Z" fill="#105773"/>
<path d="M276.355 277.579C276.355 279.384 274.863 280.848 273.024 280.848C271.184 280.848 269.692 279.384 269.692 277.579C269.692 275.772 271.184 274.308 273.024 274.308C274.863 274.308 276.355 275.772 276.355 277.579Z" fill="#105773"/>
<path d="M273.899 284.244C273.899 286.049 272.408 287.513 270.568 287.513C268.728 287.513 267.236 286.049 267.236 284.244C267.236 282.437 268.728 280.973 270.568 280.973C272.408 280.973 273.899 282.437 273.899 284.244Z" fill="#105773"/>
<path d="M275.715 258.54C275.715 260.347 274.223 261.811 272.383 261.811C270.543 261.811 269.052 260.347 269.052 258.54C269.052 256.735 270.543 255.271 272.383 255.271C274.223 255.271 275.715 256.735 275.715 258.54Z" fill="#105773"/>
<path d="M297.771 307.483C297.771 309.289 296.279 310.753 294.44 310.753C292.6 310.753 291.108 309.289 291.108 307.483C291.108 305.677 292.6 304.213 294.44 304.213C296.279 304.213 297.771 305.677 297.771 307.483Z" fill="#105773"/>
<path d="M189.116 153.241C189.116 155.048 187.625 156.512 185.785 156.512C183.944 156.512 182.453 155.048 182.453 153.241C182.453 151.436 183.944 149.972 185.785 149.972C187.625 149.972 189.116 151.436 189.116 153.241Z" fill="#105773"/>
<path d="M295.729 190.832C295.729 192.637 294.237 194.101 292.397 194.101C290.557 194.101 289.067 192.637 289.067 190.832C289.067 189.025 290.557 187.56 292.397 187.56C294.237 187.56 295.729 189.025 295.729 190.832Z" fill="#105773"/>
<path d="M272.096 340.3C272.096 342.105 270.604 343.571 268.764 343.571C266.924 343.571 265.433 342.105 265.433 340.3C265.433 338.493 266.924 337.028 268.764 337.028C270.604 337.028 272.096 338.493 272.096 340.3Z" fill="#105773"/>
<path d="M260.551 281.545C260.551 283.352 259.059 284.816 257.22 284.816C255.38 284.816 253.888 283.352 253.888 281.545C253.888 279.74 255.38 278.276 257.22 278.276C259.059 278.276 260.551 279.74 260.551 281.545Z" fill="#105773"/>
<path d="M265.605 258.54C265.605 260.347 264.113 261.811 262.275 261.811C260.435 261.811 258.943 260.347 258.943 258.54C258.943 256.735 260.435 255.271 262.275 255.271C264.113 255.271 265.605 256.735 265.605 258.54Z" fill="#105773"/>
<path d="M278.012 245.233C278.012 247.04 276.521 248.504 274.68 248.504C272.84 248.504 271.349 247.04 271.349 245.233C271.349 243.428 272.84 241.964 274.68 241.964C276.521 241.964 278.012 243.428 278.012 245.233Z" fill="#105773"/>
<path d="M260.78 265.081C260.78 266.888 259.289 268.352 257.449 268.352C255.609 268.352 254.117 266.888 254.117 265.081C254.117 263.276 255.609 261.811 257.449 261.811C259.289 261.811 260.78 263.276 260.78 265.081Z" fill="#105773"/>
<path d="M289.04 245.459C289.04 247.265 287.549 248.729 285.709 248.729C283.869 248.729 282.377 247.265 282.377 245.459C282.377 243.653 283.869 242.189 285.709 242.189C287.549 242.189 289.04 243.653 289.04 245.459Z" fill="#105773"/>
<path d="M239.184 298.011C239.184 299.816 237.692 301.28 235.852 301.28C234.012 301.28 232.521 299.816 232.521 298.011C232.521 296.204 234.012 294.74 235.852 294.74C237.692 294.74 239.184 296.204 239.184 298.011Z" fill="#105773"/>
<path d="M196.679 249.068C196.679 250.873 195.187 252.337 193.347 252.337C191.507 252.337 190.016 250.873 190.016 249.068C190.016 247.261 191.507 245.797 193.347 245.797C195.187 245.797 196.679 247.261 196.679 249.068Z" fill="#105773"/>
<path d="M158.424 249.632C158.424 251.439 156.933 252.903 155.093 252.903C153.253 252.903 151.761 251.439 151.761 249.632C151.761 247.825 153.253 246.361 155.093 246.361C156.933 246.361 158.424 247.825 158.424 249.632Z" fill="#105773"/>
<path d="M148.775 253.917C148.775 255.723 147.283 257.188 145.444 257.188C143.604 257.188 142.112 255.723 142.112 253.917C142.112 252.111 143.604 250.647 145.444 250.647C147.283 250.647 148.775 252.111 148.775 253.917Z" fill="#105773"/>
<path d="M154.289 207.681C154.289 209.487 152.797 210.951 150.957 210.951C149.117 210.951 147.627 209.487 147.627 207.681C147.627 205.875 149.117 204.411 150.957 204.411C152.797 204.411 154.289 205.875 154.289 207.681Z" fill="#105773"/>
<path d="M163.249 241.512C163.249 243.319 161.757 244.783 159.917 244.783C158.079 244.783 156.587 243.319 156.587 241.512C156.587 239.705 158.079 238.241 159.917 238.241C161.757 238.241 163.249 239.705 163.249 241.512Z" fill="#105773"/>
<path d="M186.455 201.817C186.455 203.623 184.963 205.087 183.123 205.087C181.283 205.087 179.792 203.623 179.792 201.817C179.792 200.011 181.283 198.547 183.123 198.547C184.963 198.547 186.455 200.011 186.455 201.817Z" fill="#105773"/>
<path d="M239.757 208.584C239.757 210.389 238.267 211.853 236.427 211.853C234.587 211.853 233.095 210.389 233.095 208.584C233.095 206.777 234.587 205.312 236.427 205.312C238.267 205.312 239.757 206.777 239.757 208.584Z" fill="#105773"/>
<path d="M266.869 228.431C266.869 230.237 265.377 231.701 263.537 231.701C261.697 231.701 260.207 230.237 260.207 228.431C260.207 226.624 261.697 225.16 263.537 225.16C265.377 225.16 266.869 226.624 266.869 228.431Z" fill="#105773"/>
<path d="M255.152 247.828C255.152 249.633 253.66 251.097 251.82 251.097C249.98 251.097 248.488 249.633 248.488 247.828C248.488 246.021 249.98 244.557 251.82 244.557C253.66 244.557 255.152 246.021 255.152 247.828Z" fill="#105773"/>
<path d="M240.792 240.272C240.792 242.079 239.3 243.543 237.46 243.543C235.62 243.543 234.129 242.079 234.129 240.272C234.129 238.465 235.62 237.001 237.46 237.001C239.3 237.001 240.792 238.465 240.792 240.272Z" fill="#105773"/>
<path d="M252.395 219.184C252.395 220.989 250.903 222.453 249.063 222.453C247.223 222.453 245.731 220.989 245.731 219.184C245.731 217.377 247.223 215.913 249.063 215.913C250.903 215.913 252.395 217.377 252.395 219.184Z" fill="#105773"/>
<path d="M228.96 229.108C228.96 230.913 227.468 232.377 225.628 232.377C223.788 232.377 222.296 230.913 222.296 229.108C222.296 227.301 223.788 225.837 225.628 225.837C227.468 225.837 228.96 227.301 228.96 229.108Z" fill="#105773"/>
<path d="M243.433 215.349C243.433 217.156 241.943 218.62 240.103 218.62C238.263 218.62 236.771 217.156 236.771 215.349C236.771 213.543 238.263 212.079 240.103 212.079C241.943 212.079 243.433 213.543 243.433 215.349Z" fill="#105773"/>
<path d="M220.688 215.124C220.688 216.929 219.196 218.393 217.357 218.393C215.517 218.393 214.025 216.929 214.025 215.124C214.025 213.317 215.517 211.853 217.357 211.853C219.196 211.853 220.688 213.317 220.688 215.124Z" fill="#105773"/>
<path d="M257.449 226.175C257.449 227.981 255.957 229.445 254.117 229.445C252.277 229.445 250.785 227.981 250.785 226.175C250.785 224.369 252.277 222.905 254.117 222.905C255.957 222.905 257.449 224.369 257.449 226.175Z" fill="#105773"/>
<path d="M190.131 229.108C190.131 230.913 188.639 232.377 186.8 232.377C184.96 232.377 183.468 230.913 183.468 229.108C183.468 227.301 184.96 225.837 186.8 225.837C188.639 225.837 190.131 227.301 190.131 229.108Z" fill="#105773"/>
<path d="M142.801 239.256C142.801 241.063 141.309 242.528 139.469 242.528C137.629 242.528 136.139 241.063 136.139 239.256C136.139 237.451 137.629 235.987 139.469 235.987C141.309 235.987 142.801 237.451 142.801 239.256Z" fill="#105773"/>
<path d="M137.287 205.539L145.903 213.996V243.429" stroke="#105773" stroke-width="1.33333" stroke-miterlimit="10"/>
<path d="M139.584 215.688V238.693" stroke="#105773" stroke-width="1.33333" stroke-miterlimit="10"/>
<path d="M132.692 222.68V241.4L145.788 254.255" stroke="#105773" stroke-width="1.33333" stroke-miterlimit="10"/>
<path d="M151.303 207.117V233.055L159.917 241.512" stroke="#105773" stroke-width="1.33333" stroke-miterlimit="10"/>
<path d="M163.479 223.131C163.939 222.453 177.495 209.372 177.495 209.372H236.771" stroke="#105773" stroke-width="1.33333" stroke-miterlimit="10"/>
<path d="M183.008 201.704H239.988L258.483 219.86" stroke="#105773" stroke-width="1.33333" stroke-miterlimit="10"/>
<path d="M217.472 193.359H254.232L269.281 208.132L269.271 219.932" stroke="#105773" stroke-width="1.33333" stroke-miterlimit="10"/>
<path d="M273.761 177.345L266.065 184.901V196.291" stroke="#105773" stroke-width="1.33333" stroke-miterlimit="10"/>
<path d="M296.507 170.353L282.492 184.112V193.809" stroke="#105773" stroke-width="1.33333" stroke-miterlimit="10"/>
<path d="M304.779 179.376L292.945 190.991" stroke="#105773" stroke-width="1.33333" stroke-miterlimit="10"/>
<path d="M312.361 186.367L299.495 200.125L274.221 199.448" stroke="#105773" stroke-width="1.33333" stroke-miterlimit="10"/>
<path d="M286.857 205.087L276.633 215.124V232.143" stroke="#105773" stroke-width="1.33333" stroke-miterlimit="10"/>
<path d="M283.871 224.709L303.745 205.2" stroke="#105773" stroke-width="1.33333" stroke-miterlimit="10"/>
<path d="M313.049 197.193V209.147L296.163 225.724" stroke="#105773" stroke-width="1.33333" stroke-miterlimit="10"/>
<path d="M263.423 228.317L250.901 240.611" stroke="#105773" stroke-width="1.33333" stroke-miterlimit="10"/>
<path d="M254.692 225.387L242.745 237.113V250.421" stroke="#105773" stroke-width="1.33333" stroke-miterlimit="10"/>
<path d="M249.637 218.845L237.231 231.025V241.4" stroke="#105773" stroke-width="1.33333" stroke-miterlimit="10"/>
<path d="M208.052 223.807L217.472 214.56H240.677" stroke="#105773" stroke-width="1.33333" stroke-miterlimit="10"/>
<path d="M206.903 214.335L197.483 223.581H176.345L169.108 230.687" stroke="#105773" stroke-width="1.33333" stroke-miterlimit="10"/>
<path d="M176.345 235.309H215.404L240.792 260.232V296.883L258.655 313.516L258.139 346.503" stroke="#105773" stroke-width="1.33333" stroke-miterlimit="10"/>
<path d="M186.915 228.995C187.604 228.995 216.553 228.995 216.553 228.995L245.272 257.188V294.176" stroke="#105773" stroke-width="1.33333" stroke-miterlimit="10"/>
<path d="M251.705 246.812V290.793L269.167 307.935H293.751" stroke="#105773" stroke-width="1.33333" stroke-miterlimit="10"/>
<path d="M318.333 281.095L300.068 299.025H275.14L257.047 281.264" stroke="#105773" stroke-width="1.33333" stroke-miterlimit="10"/>
<path d="M273.429 277.712H282.032L295.473 290.905" stroke="#105773" stroke-width="1.33333" stroke-miterlimit="10"/>
<path d="M262.044 271.396H294.669L306.847 283.351" stroke="#105773" stroke-width="1.33333" stroke-miterlimit="10"/>
<path d="M256.989 265.081H283.871L292.487 256.624L306.284 270.168" stroke="#105773" stroke-width="1.33333" stroke-miterlimit="10"/>
<path d="M261.355 259.217L275.829 245.008" stroke="#105773" stroke-width="1.33333" stroke-miterlimit="10"/>
<path d="M271.876 259.217L286.351 245.008" stroke="#105773" stroke-width="1.33333" stroke-miterlimit="10"/>
<path d="M264.112 238.919H286.168L318.449 270.607" stroke="#105773" stroke-width="1.33333" stroke-miterlimit="10"/>
<path d="M294.899 236.663L319.139 260.457" stroke="#105773" stroke-width="1.33333" stroke-miterlimit="10"/>
<path d="M303.803 236.043L314.428 235.987L325.112 246.473" stroke="#105773" stroke-width="1.33333" stroke-miterlimit="10"/>
<path d="M321.321 213.884L303.285 231.588H276.059" stroke="#105773" stroke-width="1.33333" stroke-miterlimit="10"/>
<path d="M225.283 229.22L240.103 215.349" stroke="#105773" stroke-width="1.33333" stroke-miterlimit="10"/>
<path d="M174.048 219.748L178.872 215.011H197.024" stroke="#105773" stroke-width="1.33333" stroke-miterlimit="10"/>
<path d="M154.749 249.519H183.008L191.739 240.948" stroke="#105773" stroke-width="1.33333" stroke-miterlimit="10"/>
<path d="M193.577 249.744L201.848 241.625H212.876L235.048 263.389V298.236" stroke="#105773" stroke-width="1.33333" stroke-miterlimit="10"/>
<path d="M310.351 243.655L317.932 251.097" stroke="#105773" stroke-width="1.33333" stroke-miterlimit="10"/>
<path d="M275.025 312.501L268.477 318.929V340.075" stroke="#105773" stroke-width="1.33333" stroke-miterlimit="10"/>
<path d="M271.999 285.672L279.896 293.425" stroke="#105773" stroke-width="1.33333" stroke-miterlimit="10"/>
<path d="M102.943 332.736H115.851" stroke="#132240" stroke-width="1.33333" stroke-miterlimit="10"/>
<path d="M203.913 411.329C214.437 408.292 224.429 403.392 233.292 396.92" stroke="#132240" stroke-width="1.33333" stroke-miterlimit="10"/>
<path d="M139.507 293.392C124.929 293.392 113.11 281.097 113.11 281.097C113.11 281.097 124.929 268.803 139.507 268.803C154.085 268.803 165.904 281.097 165.904 281.097C165.904 281.097 154.085 293.392 139.507 293.392Z" fill="white"/>
<path d="M225.327 330.388C219.789 333.301 212.935 331.139 210.047 325.569C207.159 320 209.315 313.1 214.852 310.188C220.389 307.275 227.245 309.436 230.132 315.005C233.02 320.575 230.864 327.475 225.327 330.388ZM226.808 338.269C225.909 336.728 226.424 334.744 227.956 333.837C229.489 332.931 231.46 333.445 232.359 334.987C232.435 335.116 232.484 335.251 232.54 335.385C233.543 334.549 234.445 333.627 235.244 332.633C235.097 332.576 234.949 332.521 234.808 332.44C233.264 331.559 232.723 329.583 233.601 328.028C234.48 326.472 236.444 325.925 237.988 326.807C238.131 326.888 238.253 326.988 238.379 327.085C238.827 325.864 239.153 324.601 239.355 323.315C239.188 323.343 239.02 323.369 238.845 323.371C237.069 323.384 235.619 321.945 235.607 320.159C235.595 318.371 237.027 316.909 238.803 316.895C238.976 316.893 239.143 316.917 239.308 316.943C239.091 315.669 238.745 314.408 238.267 313.173C238.133 313.287 237.995 313.397 237.837 313.489C236.305 314.396 234.333 313.88 233.435 312.339C232.536 310.797 233.051 308.813 234.584 307.908C234.733 307.819 234.889 307.755 235.047 307.693C234.203 306.677 233.271 305.764 232.268 304.96C232.208 305.124 232.143 305.288 232.055 305.444C231.176 307 229.213 307.547 227.668 306.665C226.124 305.783 225.583 303.807 226.461 302.252C226.544 302.105 226.644 301.977 226.745 301.849C225.529 301.407 224.272 301.089 222.993 300.896C223.02 301.059 223.045 301.223 223.047 301.393C223.057 303.181 221.628 304.641 219.851 304.656C218.075 304.669 216.624 303.232 216.612 301.444C216.611 301.287 216.635 301.137 216.655 300.987C215.407 301.213 214.167 301.564 212.956 302.048C213.051 302.167 213.147 302.284 213.227 302.419C214.125 303.96 213.611 305.944 212.079 306.851C210.545 307.756 208.575 307.241 207.676 305.7C207.607 305.581 207.56 305.456 207.508 305.332C206.523 306.169 205.636 307.092 204.852 308.083C204.977 308.133 205.105 308.179 205.225 308.248C206.771 309.129 207.311 311.105 206.433 312.661C205.555 314.216 203.591 314.761 202.047 313.88C201.94 313.82 201.849 313.741 201.752 313.671C201.325 314.867 201.015 316.101 200.823 317.359C200.944 317.343 201.063 317.319 201.189 317.317C202.965 317.304 204.416 318.741 204.427 320.529C204.44 322.317 203.008 323.777 201.232 323.792C201.116 323.793 201.007 323.772 200.895 323.76C201.112 324.992 201.452 326.212 201.915 327.407C202.008 327.336 202.093 327.26 202.196 327.199C203.729 326.292 205.7 326.807 206.599 328.349C207.499 329.889 206.984 331.875 205.451 332.78C205.355 332.837 205.252 332.872 205.153 332.917C205.971 333.9 206.869 334.787 207.835 335.572C207.883 335.461 207.92 335.349 207.98 335.243C208.859 333.688 210.821 333.141 212.367 334.023C213.911 334.905 214.451 336.88 213.573 338.436C213.515 338.54 213.44 338.628 213.371 338.724C214.556 339.159 215.781 339.479 217.029 339.679C217.013 339.551 216.989 339.425 216.988 339.295C216.976 337.507 218.407 336.045 220.184 336.032C221.96 336.019 223.411 337.456 223.423 339.244C223.423 339.377 223.4 339.505 223.387 339.635C224.625 339.419 225.856 339.081 227.059 338.615C226.972 338.503 226.881 338.395 226.808 338.269Z" fill="#105773"/>
<path d="M224.091 328.005C219.853 330.235 214.625 328.585 212.416 324.324C210.205 320.061 211.849 314.799 216.087 312.571C220.325 310.341 225.553 311.989 227.763 316.252C229.973 320.515 228.329 325.777 224.091 328.005Z" stroke="#105773" stroke-width="1.33333" stroke-miterlimit="10"/>
<path d="M212.379 270.504C217.579 275.889 217.328 284.556 211.821 289.824C206.316 295.092 197.608 294.997 192.408 289.612C187.209 284.228 187.459 275.56 192.964 270.293C198.471 265.025 207.18 265.12 212.379 270.504ZM187.223 262.224C187.139 262.08 187.083 261.927 187.019 261.776C185.815 262.799 184.732 263.924 183.775 265.135C183.927 265.197 184.083 265.252 184.231 265.336C186.117 266.413 186.777 268.827 185.705 270.727C184.633 272.628 182.233 273.295 180.347 272.217C180.216 272.143 180.107 272.048 179.988 271.961C179.467 273.421 179.085 274.931 178.852 276.465C179 276.447 179.145 276.417 179.299 276.416C181.469 276.399 183.241 278.155 183.255 280.339C183.269 282.524 181.523 284.308 179.352 284.325C179.211 284.327 179.077 284.3 178.94 284.287C179.207 285.791 179.62 287.281 180.185 288.741C180.3 288.655 180.405 288.56 180.531 288.487C182.403 287.38 184.811 288.008 185.908 289.891C187.005 291.775 186.379 294.197 184.505 295.304C184.388 295.375 184.263 295.417 184.141 295.472C185.14 296.672 186.237 297.756 187.417 298.715C187.475 298.58 187.521 298.443 187.595 298.312C188.667 296.412 191.067 295.745 192.953 296.823C194.84 297.9 195.5 300.313 194.428 302.213C194.356 302.34 194.264 302.448 194.18 302.564C195.628 303.097 197.125 303.488 198.649 303.731C198.629 303.575 198.6 303.423 198.599 303.263C198.584 301.079 200.332 299.293 202.503 299.277C204.672 299.26 206.444 301.016 206.459 303.2C206.46 303.363 206.432 303.519 206.415 303.677C207.928 303.415 209.431 303 210.901 302.431C210.795 302.295 210.684 302.163 210.595 302.009C209.497 300.127 210.125 297.703 211.997 296.596C213.869 295.489 216.277 296.117 217.375 298C217.467 298.157 217.528 298.323 217.596 298.487C218.821 297.465 219.924 296.337 220.899 295.125C220.72 295.056 220.54 294.987 220.368 294.889C218.48 293.812 217.82 291.399 218.893 289.499C219.965 287.599 222.364 286.931 224.252 288.008C224.424 288.107 224.576 288.228 224.728 288.348C225.276 286.856 225.675 285.312 225.92 283.741C225.717 283.776 225.512 283.808 225.299 283.809C223.129 283.827 221.357 282.071 221.343 279.887C221.328 277.701 223.076 275.917 225.247 275.9C225.459 275.899 225.663 275.927 225.864 275.959C225.599 274.404 225.177 272.861 224.592 271.353C224.428 271.492 224.259 271.627 224.068 271.74C222.195 272.847 219.788 272.217 218.691 270.335C217.592 268.452 218.22 266.028 220.092 264.921C220.276 264.812 220.467 264.735 220.657 264.66C219.627 263.417 218.489 262.304 217.264 261.32C217.191 261.521 217.112 261.721 217.003 261.913C215.931 263.813 213.532 264.48 211.645 263.403C209.757 262.325 209.099 259.912 210.171 258.012C210.272 257.833 210.395 257.676 210.517 257.52C209.032 256.98 207.497 256.592 205.935 256.357C205.967 256.556 205.999 256.755 206 256.963C206.013 259.147 204.267 260.932 202.096 260.948C199.925 260.967 198.155 259.209 198.139 257.025C198.139 256.833 198.167 256.651 198.192 256.467C196.667 256.743 195.153 257.173 193.673 257.763C193.789 257.908 193.907 258.051 194.003 258.216C195.101 260.099 194.473 262.523 192.601 263.629C190.728 264.736 188.321 264.108 187.223 262.224Z" fill="#105773"/>
<path d="M207.205 289.417C202.113 292.095 195.832 290.115 193.176 284.993C190.52 279.871 192.496 273.548 197.588 270.869C202.681 268.191 208.963 270.171 211.619 275.293C214.275 280.415 212.299 286.739 207.205 289.417Z" stroke="#105773" stroke-width="1.33333" stroke-miterlimit="10"/>
</g>
<path d="M407.713 531.447L398.356 540.084L407.713 548.722" stroke="#171717" stroke-width="1.33333" stroke-miterlimit="10" stroke-linecap="round" stroke-linejoin="round"/>
<path d="M414.032 531.447L404.676 540.084L414.032 548.722" stroke="#171717" stroke-width="1.33333" stroke-miterlimit="10" stroke-linecap="round" stroke-linejoin="round"/>
<path d="M459.284 531.447L468.624 540.084L459.284 548.722" stroke="#171717" stroke-width="1.33333" stroke-miterlimit="10" stroke-linecap="round" stroke-linejoin="round"/>
<path d="M421.485 540.044C421.485 542 419.901 543.584 417.947 543.584C415.991 543.584 414.407 542 414.407 540.044C414.407 538.089 415.991 536.504 417.947 536.504C419.901 536.504 421.485 538.089 421.485 540.044Z" stroke="#171717" stroke-width="1.33333" stroke-miterlimit="10" stroke-linecap="round" stroke-linejoin="round"/>
<path d="M427.64 540.044H441.507" stroke="#171717" stroke-width="1.33333" stroke-miterlimit="10" stroke-linecap="round" stroke-linejoin="round"/>
<path d="M447.408 540.044H455.668" stroke="#171717" stroke-width="1.33333" stroke-miterlimit="10" stroke-linecap="round" stroke-linejoin="round"/>
<path d="M357.567 488.683C357.567 490.597 359.14 492.151 361.083 492.151C363.024 492.151 364.597 490.597 364.597 488.683C364.597 486.767 363.024 485.213 361.083 485.213C359.14 485.213 357.567 486.767 357.567 488.683Z" stroke="#171717" stroke-width="1.33333" stroke-miterlimit="10" stroke-linecap="round" stroke-linejoin="round"/>
<path d="M402.384 479.748L414.103 494.2" stroke="#171717" stroke-width="1.33333" stroke-miterlimit="10" stroke-linecap="round" stroke-linejoin="round"/>
<path d="M395.352 479.748L407.072 494.2" stroke="#171717" stroke-width="1.33333" stroke-miterlimit="10" stroke-linecap="round" stroke-linejoin="round"/>
<path d="M392.273 488.98H370.544" stroke="#171717" stroke-width="1.33333" stroke-miterlimit="10" stroke-linecap="round" stroke-linejoin="round"/>
<path d="M269.847 435.201L260.012 445.035" stroke="white" stroke-width="1.33333" stroke-miterlimit="10"/>
<path d="M277.165 435.201L267.331 445.035" stroke="white" stroke-width="1.33333" stroke-miterlimit="10"/>
<path d="M293.313 435.201L283.479 445.035" stroke="white" stroke-width="1.33333" stroke-miterlimit="10"/>
<path d="M279.929 547.977C279.929 549.863 278.4 551.392 276.515 551.392C274.629 551.392 273.1 549.863 273.1 547.977C273.1 546.092 274.629 544.564 276.515 544.564C278.4 544.564 279.929 546.092 279.929 547.977Z" stroke="white" stroke-width="1.33333" stroke-miterlimit="10"/>
<path d="M225.023 539.183L213.641 553.409" stroke="white" stroke-width="1.33333" stroke-miterlimit="10"/>
<path d="M236.404 539.183L225.023 553.409" stroke="white" stroke-width="1.33333" stroke-miterlimit="10"/>
<path d="M243.233 539.183L231.852 553.409" stroke="white" stroke-width="1.33333" stroke-miterlimit="10"/>
<path d="M246.223 548.271H267.325" stroke="white" stroke-width="1.33333" stroke-miterlimit="10"/>
<path d="M213.183 367.051L222.415 375.572L213.183 384.092" stroke="white" stroke-width="1.33333" stroke-miterlimit="10"/>
<path d="M206.948 367.051L216.179 375.572L206.948 384.092" stroke="white" stroke-width="1.33333" stroke-miterlimit="10"/>
<path d="M194.765 374.823C194.765 376.775 193.184 378.357 191.232 378.357C189.28 378.357 187.699 376.775 187.699 374.823C187.699 372.872 189.28 371.291 191.232 371.291C193.184 371.291 194.765 372.872 194.765 374.823Z" stroke="white" stroke-width="1.33333" stroke-miterlimit="10"/>
<path d="M200.063 375.305H210.441" stroke="white" stroke-width="1.33333" stroke-miterlimit="10"/>
<path d="M381.365 361.024L371.531 370.857" stroke="#171717" stroke-width="1.33333" stroke-miterlimit="10" stroke-linecap="round" stroke-linejoin="round"/>
<path d="M388.684 361.024L378.851 370.857" stroke="#171717" stroke-width="1.33333" stroke-miterlimit="10" stroke-linecap="round" stroke-linejoin="round"/>
<path d="M404.833 361.024L394.999 370.857" stroke="#171717" stroke-width="1.33333" stroke-miterlimit="10" stroke-linecap="round" stroke-linejoin="round"/>
<path d="M144.707 105.6C141.86 106.535 139.819 108.808 138.996 111.539C138.745 112.371 138.04 112.959 137.192 112.999L130.995 94.128L86.112 108.867L92.3093 127.739C91.6027 128.209 90.6855 128.153 89.9912 127.632C87.7088 125.92 84.7177 125.3 81.8708 126.235C76.9964 127.836 74.4645 133.36 76.4063 138.393C78.1693 142.964 83.1875 145.449 87.6755 143.989C90.5344 143.06 92.5855 140.781 93.4099 138.043C93.6609 137.212 94.3656 136.623 95.214 136.584L101.411 155.455L119.757 149.429C119.588 148.745 119.08 148.188 118.374 147.971C115.654 147.133 113.384 145.072 112.443 142.207C110.832 137.301 113.744 131.972 118.917 130.563C123.614 129.284 128.575 131.883 130.07 136.392C131.021 139.264 130.417 142.28 128.718 144.573C128.279 145.167 128.199 145.917 128.47 146.568L146.293 140.715L140.096 121.844C140.803 121.373 141.72 121.429 142.415 121.949C144.703 123.667 147.704 124.285 150.557 123.339C155.039 121.855 157.605 116.877 156.315 112.151C154.895 106.947 149.581 104 144.707 105.6Z" fill="#F29985"/>
<path d="M148.48 105.6C145.635 106.535 143.592 108.808 142.769 111.539C142.519 112.371 141.813 112.959 140.965 112.999L134.769 94.128L89.886 108.867L96.0833 127.739C95.376 128.209 94.4593 128.153 93.7651 127.632C91.4828 125.92 88.4917 125.3 85.6453 126.235C80.7693 127.836 78.2391 133.36 80.1803 138.393C81.9432 142.964 86.9615 145.449 91.45 143.989C94.3084 143.06 96.3588 140.781 97.1844 138.043C97.4349 137.212 98.1401 136.623 98.9875 136.584L105.185 155.455L123.53 149.429C123.362 148.745 122.854 148.188 122.148 147.971C119.428 147.133 117.158 145.072 116.218 142.207C114.606 137.301 117.518 131.972 122.691 130.563C127.387 129.284 132.349 131.883 133.844 136.392C134.796 139.264 134.192 142.28 132.492 144.573C132.053 145.167 131.973 145.917 132.244 146.568L150.068 140.715L143.871 121.844C144.577 121.373 145.493 121.429 146.188 121.949C148.476 123.667 151.479 124.285 154.332 123.339C158.812 121.855 161.38 116.877 160.089 112.151C158.668 106.947 153.356 104 148.48 105.6Z" stroke="#132240" stroke-width="1.33333" stroke-miterlimit="10"/>
<path d="M124.857 540.635C122.318 542.327 119.019 542.74 116.026 541.372C111.821 539.452 109.714 534.445 111.222 529.973C112.929 524.916 118.396 522.301 123.234 524.149C126.079 525.237 128.051 527.621 128.768 530.399C128.986 531.244 129.675 531.869 130.534 531.955L137.624 513.401L119.946 506.645C120.042 505.773 120.669 505.064 121.504 504.831C124.248 504.064 126.624 502.028 127.734 499.123C129.635 494.147 127.085 488.585 122.054 486.968C117.486 485.499 112.412 487.996 110.652 492.568C109.53 495.479 109.94 498.591 111.478 500.999C111.945 501.731 111.939 502.676 111.428 503.391L93.2547 496.445L86.164 514.999C86.8599 515.508 87.7917 515.501 88.5183 515.017C90.9115 513.42 93.9812 512.963 96.8328 514.061C101.31 515.787 103.7 520.904 102.19 525.564C100.527 530.696 95.014 533.363 90.1412 531.501C87.2964 530.415 85.3245 528.029 84.6068 525.252C84.388 524.408 83.6984 523.78 82.8407 523.695L75.7505 542.25L120.12 559.205L127.211 540.651C126.514 540.143 125.583 540.15 124.857 540.635Z" fill="#F29985"/>
<path d="M128.631 540.635C126.092 542.327 122.794 542.74 119.8 541.372C115.596 539.452 113.487 534.445 114.996 529.973C116.703 524.916 122.17 522.301 127.008 524.149C129.853 525.237 131.825 527.621 132.542 530.399C132.76 531.244 133.449 531.869 134.308 531.955L141.399 513.401L123.72 506.645C123.816 505.773 124.443 505.064 125.278 504.831C128.023 504.064 130.397 502.028 131.508 499.123C133.409 494.147 130.859 488.585 125.828 486.968C121.26 485.499 116.186 487.996 114.425 492.568C113.304 495.479 113.714 498.591 115.252 500.999C115.718 501.731 115.713 502.676 115.202 503.391L97.0287 496.445L89.938 514.999C90.6344 515.508 91.5656 515.501 92.2921 515.017C94.6855 513.42 97.7552 512.963 100.607 514.061C105.085 515.787 107.474 520.904 105.964 525.564C104.3 530.696 98.7885 533.363 93.9151 531.501C91.0703 530.415 89.0973 528.029 88.3803 525.252C88.162 524.408 87.4729 523.78 86.6145 523.695L79.524 542.25L123.894 559.205L130.984 540.651C130.289 540.143 129.357 540.15 128.631 540.635Z" stroke="#132240" stroke-width="1.33333" stroke-miterlimit="10"/>
<path d="M533.649 142.917C532.996 140.067 533.693 136.961 535.824 134.643C539.091 131.088 544.797 130.725 548.537 133.837C552.573 137.195 553.041 143.171 549.624 147.053C547.599 149.355 544.672 150.389 541.823 150.111C541.003 150.029 540.227 150.425 539.819 151.127L554.645 164.175L567.581 149.476C568.361 149.865 568.803 150.699 568.724 151.564C568.467 154.408 569.525 157.339 571.845 159.381C575.759 162.825 581.737 162.404 585.067 158.399C588.291 154.521 587.671 148.611 583.824 145.397C581.652 143.584 578.888 142.924 576.297 143.369C575.471 143.511 574.276 143.141 573.644 142.587L586.58 127.888L571.764 114.849C572.148 114.072 572.979 113.639 573.847 113.724C576.693 114.004 579.621 112.969 581.645 110.667C585.064 106.784 584.595 100.808 580.56 97.4508C576.819 94.3388 571.113 94.7015 567.847 98.2561C565.716 100.575 565.02 103.68 565.672 106.531C565.867 107.38 565.543 108.259 564.82 108.739L550.005 95.6988L518.071 131.987L532.896 145.033C533.54 144.541 533.835 143.721 533.649 142.917Z" fill="#F29985"/>
<path d="M537.424 142.917C536.771 140.067 537.469 136.961 539.597 134.643C542.864 131.088 548.571 130.725 552.311 133.837C556.347 137.195 556.815 143.171 553.399 147.053C551.372 149.355 548.447 150.389 545.597 150.111C544.776 150.029 544 150.425 543.593 151.127L558.419 164.175L571.356 149.476C572.137 149.865 572.576 150.699 572.497 151.564C572.24 154.408 573.3 157.339 575.619 159.381C579.532 162.825 585.511 162.404 588.84 158.399C592.064 154.521 591.444 148.611 587.599 145.397C585.427 143.584 582.661 142.924 580.071 143.369C579.247 143.511 578.049 143.141 577.417 142.587L590.355 127.888L575.539 114.849C575.923 114.072 576.752 113.639 577.62 113.724C580.469 114.004 583.395 112.969 585.42 110.667C588.837 106.784 588.368 100.808 584.335 97.4508C580.592 94.3388 574.887 94.7015 571.621 98.2561C569.491 100.575 568.793 103.68 569.447 106.531C569.64 107.38 569.316 108.259 568.595 108.739L553.78 95.6988L521.844 131.987L536.671 145.033C537.315 144.541 537.608 143.721 537.424 142.917Z" stroke="#132240" stroke-width="1.33333" stroke-miterlimit="10"/>
<path d="M522.249 529.487C525.171 528.62 528.185 529.311 530.444 531.08C531.132 531.619 532.06 531.696 532.793 531.241L527.135 512.201L545.784 506.66C545.543 505.849 544.727 504.893 543.956 504.571C539.62 502.753 536.673 497.637 538.984 491.316C544.545 483.536 554.037 486.312 556.131 493.355C557.016 496.336 556.369 499.396 554.657 501.675C554.137 502.367 554.071 503.311 554.525 504.063L573.175 498.521L587.141 545.524L541.103 559.205L535.444 540.165C534.581 540.186 533.848 540.757 533.565 541.584C532.619 544.357 530.397 546.621 527.38 547.448C522.753 548.714 517.745 545.956 516.221 541.303C514.579 536.281 517.323 530.951 522.249 529.487Z" fill="#F29985"/>
<path d="M526.025 529.487C528.944 528.62 531.96 529.311 534.217 531.08C534.905 531.619 535.833 531.696 536.567 531.241L530.909 512.201L549.557 506.66C549.316 505.849 548.5 504.893 547.729 504.571C543.395 502.753 540.448 497.637 542.759 491.316C548.32 483.536 557.811 486.312 559.905 493.355C560.791 496.336 560.143 499.396 558.431 501.675C557.911 502.367 557.844 503.311 558.3 504.063L576.948 498.521L590.916 545.524L544.876 559.205L539.219 540.165C538.357 540.186 537.621 540.757 537.34 541.584C536.393 544.357 534.172 546.621 531.155 547.448C526.527 548.714 521.519 545.956 519.995 541.303C518.352 536.281 521.097 530.951 526.025 529.487Z" stroke="#132240" stroke-width="1.33333" stroke-miterlimit="10"/>
<path d="M297.44 99.3387H274.301V105.868H297.44V99.3387Z" fill="#F29985"/>
<path d="M331.064 99.3387H303.831V105.868H331.064V99.3387Z" fill="#F29985"/>
<path d="M351.831 99.3387H335.744V105.868H351.831V99.3387Z" fill="#F29985"/>
<path d="M375.781 99.3387V105.868H394.208V99.3387H375.781Z" fill="#F29985"/>
<path d="M321.12 110.945H277.507V117.473H321.12V110.945Z" fill="#F29985"/>
<path d="M360.897 110.945H327.261V117.473H360.897V110.945Z" fill="#F29985"/>
<path d="M393.948 110.945H382.249V117.473H393.948V110.945Z" fill="#F29985"/>
<path d="M395.504 95.8694C398.081 95.8694 400.171 98.0107 400.171 100.653V104.055C400.171 105.324 400.663 106.541 401.537 107.439L402.941 108.877L401.975 109.869C401.1 110.767 400.608 111.984 400.608 113.252V116.143C400.608 118.785 398.52 120.928 395.941 120.928H395.172" stroke="#171717" stroke-width="1.33333" stroke-miterlimit="10" stroke-linecap="round" stroke-linejoin="round"/>
<path d="M271.163 95.8694C268.584 95.8694 266.496 98.0107 266.496 100.653V104.055C266.496 105.324 266.004 106.541 265.129 107.439L263.724 108.877L264.692 109.869C265.567 110.767 266.057 111.984 266.057 113.252V116.143C266.057 118.785 268.148 120.928 270.724 120.928H271.495" stroke="#171717" stroke-width="1.33333" stroke-miterlimit="10" stroke-linecap="round" stroke-linejoin="round"/>
<path d="M362.765 99.0468L373.296 117.767" stroke="#171717" stroke-width="1.33333" stroke-miterlimit="10" stroke-linecap="round" stroke-linejoin="round"/>
</svg>
