<svg width="667" height="667" viewBox="0 0 667 667" fill="none" xmlns="http://www.w3.org/2000/svg">
<g clip-path="url(#clip0_11_181)">
<path d="M676.667 666.667V-9.53674e-07H10V666.667H676.667Z" fill="white"/>
<path d="M172.34 110.565C171.051 111.445 169.776 112.341 168.52 113.249C149.004 127.343 96.826 149.384 106.053 180.283C109.713 192.531 122.932 198.999 135.151 202.752C179.427 216.355 201.559 196.923 235.177 168.631C247.052 158.637 259.827 146.983 261.144 131.519C262.832 111.707 243.257 94.9413 223.435 93.388C205.157 91.9547 187.603 100.153 172.34 110.565Z" fill="#17A6A6" fill-opacity="0.12"/>
<path d="M524.712 494.277C504.835 517.436 493.761 550.396 528.561 567.216C562.908 583.816 593.216 554.489 603.28 523.599C609.099 505.735 605.113 483.189 589.164 473.257C574.923 464.391 555.572 468.295 542.011 478.172C536.089 482.485 530.08 488.024 524.712 494.277Z" fill="#17A6A6" fill-opacity="0.12"/>
<path d="M175.892 544.967C162.983 535.109 151.308 523.564 141.338 510.888C99.6104 457.84 92.2104 378.384 129.542 320.856C157.836 277.256 205.877 248.716 256.584 237.297C278.527 232.357 301.265 230.3 322.269 222.256C356.5 209.148 383.093 181.223 403.596 150.837C414.665 134.433 424.573 116.784 439.564 103.865C461.283 85.1466 492.376 78.6399 520.305 85.1306C548.235 91.6199 572.684 110.393 587.977 134.647C597.269 149.381 603.405 166.257 604.563 183.639C606.68 215.436 592.139 246.304 572.685 271.545C553.232 296.787 528.871 317.751 507.117 341.037C475.083 375.333 457.056 418.139 435.449 459.103C419.396 489.535 399.003 518.101 372.575 540.133C346.144 562.165 313.321 577.377 278.969 579.309C241.889 581.396 205.619 567.662 175.892 544.967Z" fill="#17A6A6" fill-opacity="0.12"/>
<path d="M436.86 465.753V508.905C436.86 512.452 440.003 515.327 443.879 515.327H468.387" stroke="#105773" stroke-width="2.66667" stroke-miterlimit="10" stroke-linecap="round"/>
<path d="M379.039 346.541V393.005C379.039 396.364 381.763 399.087 385.123 399.087H453.241" stroke="#105773" stroke-width="2.66667" stroke-miterlimit="10" stroke-linecap="round"/>
<path d="M341.505 335.609V369.076C341.505 372.977 338.343 376.141 334.44 376.141H177.783C172.14 376.141 167.564 380.717 167.564 386.361V425.64" stroke="#105773" stroke-width="2.66667" stroke-miterlimit="10" stroke-linecap="round"/>
<path d="M437.913 113.279V123.788H450.887V113.279H437.913Z" fill="#F29985" fill-opacity="0.82"/>
<path d="M496.087 113.279H462.188V123.788H496.087V113.279Z" fill="#F29985" fill-opacity="0.82"/>
<path d="M568.124 113.279H525.751V123.788H568.124V113.279Z" fill="#F29985" fill-opacity="0.82"/>
<path d="M578.012 113.279V123.788H607.675V113.279H578.012Z" fill="#F29985" fill-opacity="0.82"/>
<path d="M489.025 131.961V142.471H508.8V131.961H489.025Z" fill="#F29985" fill-opacity="0.82"/>
<path d="M437.913 131.961V142.471H476.312V131.961H437.913Z" fill="#F29985" fill-opacity="0.82"/>
<path d="M563.887 131.961V142.471H597.787V131.961H563.887Z" fill="#F29985" fill-opacity="0.82"/>
<path d="M609.76 107.691C613.911 107.691 617.273 111.14 617.273 115.395V120.869C617.273 122.913 618.064 124.872 619.472 126.316L621.733 128.633L620.177 130.229C618.768 131.673 617.976 133.633 617.976 135.676V140.328C617.976 144.583 614.613 148.031 610.465 148.031H609.227" stroke="#171717" stroke-width="1.33333" stroke-miterlimit="10" stroke-linecap="round" stroke-linejoin="round"/>
<path d="M436.868 107.691C432.719 107.691 429.356 111.14 429.356 115.395V120.869C429.356 122.913 428.565 124.872 427.156 126.316L424.896 128.633L426.452 130.229C427.861 131.673 428.652 133.633 428.652 135.676V140.328C428.652 144.583 432.016 148.031 436.164 148.031H437.403" stroke="#171717" stroke-width="1.33333" stroke-miterlimit="10" stroke-linecap="round" stroke-linejoin="round"/>
<path d="M509.793 112.808L526.744 142.941" stroke="#171717" stroke-width="1.33333" stroke-miterlimit="10" stroke-linecap="round" stroke-linejoin="round"/>
<path d="M467.396 309.996C474.901 303.433 477.731 292.508 477.784 282.368C477.807 277.796 477.313 273.175 475.948 268.797C474.669 264.697 473.497 262.492 469.609 260.193C471.328 255.025 472.128 250.159 469.824 245.056C467.876 240.74 464.132 237.148 459.563 235.909L459.579 236.12C459.411 236.011 459.241 235.905 459.069 235.811C459.004 233.891 458.572 231.98 457.741 230.261C456.667 228.041 455.051 226.125 453.136 224.584C450.868 222.76 448.173 222.24 445.419 221.4C444.989 221.269 444.553 221.136 444.18 220.884C443.636 220.517 443.28 219.937 442.909 219.396C440.52 215.911 436.779 213.377 432.655 212.452C432.223 212.355 431.763 212.263 431.435 211.964C431.128 211.684 430.991 211.268 430.844 210.879C429.277 206.704 425.221 203.576 420.785 203.121C420.441 203.087 420.075 203.059 419.8 202.849C419.58 202.683 419.453 202.425 419.328 202.18C417.165 197.921 413.517 194.436 409.164 192.472C404.809 190.508 399.783 190.079 395.159 191.275C394.368 186.976 391.423 183.275 387.721 180.952C384.003 178.619 379.84 176.756 375.415 176.735C370.672 176.712 367.176 179.284 363.719 182.295C363.847 180.739 363.027 179.252 362.024 178.056C359.773 175.377 356.435 173.64 352.949 173.337C349.464 173.035 345.876 174.169 343.199 176.421L343.231 176.443C343.192 176.451 343.151 176.459 343.111 176.467C343.023 176.281 342.939 176.093 342.811 175.928C342.297 175.268 341.516 174.88 340.749 174.545C327.764 168.859 311.207 172.9 302.301 183.929C297.339 181.071 291.153 180.425 285.707 182.199C280.26 183.972 275.64 188.135 273.311 193.367C272.567 192.104 270.997 191.617 269.552 191.368C262.848 190.209 255.685 192.015 250.332 196.215C244.98 200.415 241.521 206.941 241.052 213.728C233.139 213.797 225.363 217.888 220.823 224.368C218.888 227.129 217.539 230.553 217.904 233.833C216.365 235.075 215.049 236.481 214.119 237.892C212.005 241.096 211.091 245.183 212.113 248.929C212.569 250.596 213.477 252.053 214.397 253.491C206.801 255.235 201.525 263.009 201.163 270.805C200.905 276.349 202.748 281.759 205.732 286.489L205.589 286.405C203.068 291.437 203.055 297.651 205.555 302.693C208.053 307.735 213.007 311.488 218.537 312.528C221.823 313.145 225.336 312.813 228.296 311.264C228.337 311.272 228.38 311.275 228.421 311.281C229.6 316.631 233.744 320.859 239.057 322.205C242.305 323.028 245.727 322.733 249.045 322.257C253.669 321.593 258.377 320.532 262.235 317.895C262.528 317.693 262.816 317.479 263.096 317.255C263.336 317.436 263.577 317.619 263.817 317.801C263.399 323.708 266.069 329.753 270.663 333.524C275.807 337.747 280.976 339.344 287.4 337.668C288.813 342.764 292.832 346.929 297.647 349.119C302.461 351.308 307.987 351.643 313.192 350.704C317.421 349.941 321.952 347.929 323.452 343.901C326.603 346.215 331.448 347.277 335.251 346.471C338.269 345.828 341.157 343.081 344.116 342.725C345.301 342.584 346.487 342.459 347.671 342.324C352.732 356.861 369.16 363.768 383.791 358.597C390.96 368.256 402.585 374.268 414.571 375.281C426.555 376.293 438.751 372.481 448.497 365.433C457.761 358.735 465.283 347.189 461.881 336.273C472.277 332.237 476.469 317.767 468.863 309.611L467.396 309.996Z" fill="#17A6A6"/>
<path d="M462.471 302.113C469.975 295.552 472.805 284.625 472.859 274.487C472.881 269.915 472.388 265.292 471.023 260.916C469.744 256.816 468.572 254.611 464.683 252.311C466.401 247.143 467.201 242.277 464.899 237.173C462.951 232.859 459.204 229.267 454.636 228.027L454.652 228.239C454.484 228.129 454.315 228.024 454.143 227.929C454.079 226.009 453.645 224.097 452.813 222.379C451.741 220.16 450.125 218.244 448.208 216.701C445.943 214.877 443.247 214.359 440.493 213.519C440.064 213.388 439.627 213.253 439.253 213.001C438.709 212.635 438.355 212.056 437.983 211.515C435.593 208.029 431.853 205.496 427.729 204.569C427.297 204.472 426.837 204.381 426.509 204.083C426.201 203.801 426.064 203.387 425.917 202.997C424.352 198.821 420.296 195.695 415.86 195.24C415.516 195.205 415.148 195.177 414.873 194.968C414.653 194.801 414.527 194.544 414.403 194.297C412.24 190.04 408.589 186.555 404.237 184.591C399.884 182.627 394.857 182.196 390.233 183.392C389.441 179.095 386.497 175.392 382.796 173.071C379.077 170.737 374.915 168.875 370.488 168.853C365.745 168.829 362.248 171.403 358.793 174.413C358.919 172.856 358.1 171.371 357.096 170.175C354.848 167.496 351.509 165.759 348.024 165.456C344.537 165.153 340.949 166.288 338.272 168.54L338.305 168.561C338.265 168.569 338.224 168.576 338.185 168.585C338.097 168.4 338.012 168.212 337.884 168.047C337.372 167.387 336.589 166.999 335.824 166.664C322.839 160.976 306.281 165.017 297.376 176.047C292.412 173.189 286.227 172.544 280.78 174.316C275.333 176.089 270.713 180.252 268.385 185.485C267.64 184.223 266.071 183.736 264.627 183.487C257.921 182.327 250.759 184.133 245.407 188.333C240.053 192.532 236.595 199.059 236.125 205.847C228.212 205.916 220.437 210.005 215.896 216.487C213.963 219.248 212.612 222.671 212.977 225.951C211.44 227.193 210.123 228.6 209.193 230.011C207.08 233.215 206.165 237.301 207.188 241.048C207.643 242.715 208.551 244.171 209.471 245.609C201.876 247.353 196.599 255.128 196.236 262.924C195.979 268.468 197.821 273.877 200.805 278.608L200.663 278.524C198.141 283.556 198.128 289.769 200.628 294.811C203.127 299.853 208.081 303.605 213.611 304.647C216.896 305.264 220.411 304.932 223.369 303.383C223.412 303.389 223.453 303.392 223.495 303.399C224.673 308.749 228.817 312.976 234.132 314.324C237.38 315.147 240.801 314.852 244.119 314.375C248.744 313.711 253.452 312.651 257.308 310.012C257.603 309.811 257.889 309.597 258.171 309.373C258.411 309.555 258.651 309.737 258.891 309.919C258.472 315.827 261.143 321.872 265.737 325.643C270.88 329.864 276.049 331.461 282.473 329.785C283.888 334.883 287.907 339.048 292.721 341.237C297.536 343.425 303.06 343.761 308.265 342.823C312.496 342.06 317.027 340.047 318.527 336.02C321.676 338.333 326.523 339.396 330.325 338.587C333.343 337.947 336.231 335.199 339.191 334.844C340.373 334.701 341.56 334.576 342.745 334.443C347.805 348.977 364.233 355.887 378.864 350.716C386.032 360.373 397.66 366.387 409.644 367.399C421.629 368.412 433.825 364.6 443.572 357.552C452.835 350.852 460.356 339.307 456.956 328.392C467.352 324.356 471.543 309.884 463.937 301.728L462.471 302.113Z" stroke="#171717" stroke-width="2.66667" stroke-miterlimit="10" stroke-linecap="round" stroke-linejoin="round"/>
<path d="M279.536 285.387L277.311 314.404" stroke="#040606" stroke-width="1.33333" stroke-miterlimit="10"/>
<path d="M318.084 268.755L314.919 292.707L319.857 318.392L296.84 308.347L277.311 314.404L248.947 293.573" stroke="#040606" stroke-width="1.33333" stroke-miterlimit="10"/>
<path d="M340.597 302.191L377.533 314.836" stroke="#040606" stroke-width="1.33333" stroke-miterlimit="10"/>
<path d="M402.735 255.903L397.5 294.869" stroke="#040606" stroke-width="1.33333" stroke-miterlimit="10"/>
<path d="M265.788 265.653L279.536 285.387L306.561 243.493" stroke="#040606" stroke-width="1.33333" stroke-miterlimit="10"/>
<path d="M290.607 210.697L304.345 228.424L348.665 220.447L382.348 217.345" stroke="#040606" stroke-width="1.33333" stroke-miterlimit="10"/>
<path d="M399.996 345.949L328.673 324.208" stroke="#040606" stroke-width="1.33333" stroke-miterlimit="10"/>
<path d="M436.765 328.145L408.315 318.996L376.591 316.667" stroke="#040606" stroke-width="1.33333" stroke-miterlimit="10"/>
<path d="M371.711 274.96L397.5 294.869L426.284 294.704" stroke="#040606" stroke-width="1.33333" stroke-miterlimit="10"/>
<path d="M421.404 218.168L408.092 254.107" stroke="#040606" stroke-width="1.33333" stroke-miterlimit="10"/>
<path d="M289.352 206.356L348.639 216.837L326.621 187.056" stroke="#040606" stroke-width="1.33333" stroke-miterlimit="10"/>
<path d="M263.563 262.093L247.424 292.873L278.537 285.719" stroke="#040606" stroke-width="1.33333" stroke-miterlimit="10"/>
<path d="M438.928 327.98L428.613 294.039" stroke="#040606" stroke-width="1.33333" stroke-miterlimit="10"/>
<path d="M275.981 233.743L266.225 259.099" stroke="#040606" stroke-width="1.33333" stroke-miterlimit="10"/>
<path d="M263.231 265.088L307.821 237.136" stroke="#040606" stroke-width="1.33333" stroke-miterlimit="10"/>
<path d="M434.935 327.315L399.996 345.949L379.364 314.669L320.799 325.317L340.597 302.191" stroke="#040606" stroke-width="1.33333" stroke-miterlimit="10"/>
<path d="M352.744 217.503L318.303 266.585L362.393 268.083L352.744 217.503Z" stroke="#040606" stroke-width="1.33333" stroke-miterlimit="10"/>
<path d="M404.653 249.448C404.653 248.449 385.687 216.172 385.687 216.172L365.388 273.407L404.653 249.448Z" stroke="#040606" stroke-width="1.33333" stroke-miterlimit="10"/>
<path d="M242.267 224.491L220.139 268.915" stroke="#040606" stroke-width="1.33333" stroke-miterlimit="10"/>
<path d="M242.267 224.491L266.559 268.083L218.308 269.747" stroke="#040606" stroke-width="1.33333" stroke-miterlimit="10"/>
<path d="M326.621 187.056L291.516 205.856L254.912 199.201L274.652 232.857L309.484 233.143L318.303 266.585C318.303 266.585 278.537 285.387 279.536 285.387C280.535 285.387 296.84 308.347 296.84 308.347L314.919 292.707L341.097 304.021L362.393 268.083L377.533 314.836L395.337 295.036L408.315 318.996L426.284 294.704L402.325 253.441L438.928 269.415L421.404 218.168L384.024 217.503L384.523 191.048L326.621 187.056Z" stroke="#040606" stroke-width="1.33333" stroke-miterlimit="10"/>
<path d="M463.52 252.065C462.859 251.319 462.076 250.68 461.212 250.181C460.099 249.539 458.831 249.127 457.547 249.157C454.823 249.223 452.331 251.524 452.051 254.233C451.855 256.133 452.624 257.999 453.561 259.661C454.499 261.325 455.627 262.9 456.26 264.701C457.077 267.017 457.003 269.636 456.059 271.903" stroke="#171717" stroke-width="2.66667" stroke-miterlimit="10" stroke-linecap="round"/>
<path d="M461.224 284.721L441.257 268.748L428.613 294.039L461.224 284.721Z" stroke="#040606" stroke-width="1.33333" stroke-miterlimit="10"/>
<path d="M457.559 326.968C455.397 327.723 453.168 328.28 450.907 328.633" stroke="#171717" stroke-width="2.66667" stroke-miterlimit="10" stroke-linecap="round"/>
<path d="M217.132 248.984C213.215 249.317 209.433 251.061 206.635 253.823C203.836 256.584 202.044 260.343 201.66 264.255" stroke="#171717" stroke-width="2.66667" stroke-miterlimit="10" stroke-linecap="round"/>
<path d="M221.464 233.807C222.941 234.349 224.611 234.137 226.075 233.556C227.537 232.973 228.833 232.048 230.112 231.132" stroke="#171717" stroke-width="2.66667" stroke-miterlimit="10" stroke-linecap="round"/>
<path d="M298.096 173.841C294.713 177.481 292.123 181.853 290.555 186.569" stroke="#171717" stroke-width="2.66667" stroke-miterlimit="10" stroke-linecap="round" stroke-linejoin="round"/>
<path d="M267.723 183.893C266.796 186.469 265.963 189.079 265.227 191.715" stroke="#171717" stroke-width="2.66667" stroke-miterlimit="10" stroke-linecap="round" stroke-linejoin="round"/>
<path d="M390.076 183.223C390.292 186.8 389.62 190.427 388.135 193.688" stroke="#171717" stroke-width="2.66667" stroke-miterlimit="10" stroke-linecap="round" stroke-linejoin="round"/>
<path d="M439.773 213.141C434.124 211.735 428.151 213.549 422.951 216.167" stroke="#171717" stroke-width="2.66667" stroke-miterlimit="10" stroke-linecap="round"/>
<path d="M438.024 332.277C439.707 337.164 439.056 342.8 436.301 347.173C433.545 351.545 428.744 354.567 423.609 355.157" stroke="#171717" stroke-width="2.66667" stroke-miterlimit="10" stroke-linecap="round"/>
<path d="M429.389 218.168C429.389 222.58 425.813 226.155 421.404 226.155C416.992 226.155 413.417 222.58 413.417 218.168C413.417 213.757 416.992 210.183 421.404 210.183C425.813 210.183 429.389 213.757 429.389 218.168Z" fill="#F29985" fill-opacity="0.82"/>
<path d="M364.057 217.503C364.057 223.751 358.992 228.817 352.744 228.817C346.495 228.817 341.429 223.751 341.429 217.503C341.429 211.255 346.495 206.189 352.744 206.189C358.992 206.189 364.057 211.255 364.057 217.503Z" fill="#17A6A6" fill-opacity="0.12"/>
<path d="M391.677 191.048C391.677 195 388.473 198.203 384.523 198.203C380.571 198.203 377.367 195 377.367 191.048C377.367 187.097 380.571 183.893 384.523 183.893C388.473 183.893 391.677 187.097 391.677 191.048Z" fill="#17A6A6" fill-opacity="0.12"/>
<path d="M391.677 216.339C391.677 220.473 388.324 223.825 384.189 223.825C380.055 223.825 376.701 220.473 376.701 216.339C376.701 212.203 380.055 208.851 384.189 208.851C388.324 208.851 391.677 212.203 391.677 216.339Z" fill="#105773"/>
<path d="M229.955 268.915C229.955 274.336 225.559 278.731 220.139 278.731C214.717 278.731 210.321 274.336 210.321 268.915C210.321 263.493 214.717 259.099 220.139 259.099C225.559 259.099 229.955 263.493 229.955 268.915Z" fill="#17A6A6" fill-opacity="0.12"/>
<path d="M248.256 224.491C248.256 227.799 245.575 230.48 242.267 230.48C238.959 230.48 236.277 227.799 236.277 224.491C236.277 221.183 238.959 218.501 242.267 218.501C245.575 218.501 248.256 221.183 248.256 224.491Z" fill="#17A6A6" fill-opacity="0.12"/>
<path d="M276.873 263.424C276.873 270.408 271.212 276.069 264.229 276.069C257.245 276.069 251.584 270.408 251.584 263.424C251.584 256.441 257.245 250.779 264.229 250.779C271.212 250.779 276.873 256.441 276.873 263.424Z" fill="#17A6A6" fill-opacity="0.12"/>
<path d="M416.967 252.443C416.967 259.427 411.305 265.088 404.321 265.088C397.337 265.088 391.677 259.427 391.677 252.443C391.677 245.46 397.337 239.799 404.321 239.799C411.305 239.799 416.967 245.46 416.967 252.443Z" fill="#105773"/>
<path d="M252.916 292.873C252.916 295.905 250.457 298.364 247.424 298.364C244.392 298.364 241.935 295.905 241.935 292.873C241.935 289.841 244.392 287.383 247.424 287.383C250.457 287.383 252.916 289.841 252.916 292.873Z" fill="#F29985" fill-opacity="0.82"/>
<path d="M303.163 206.356C303.163 213.983 296.979 220.165 289.352 220.165C281.725 220.165 275.543 213.983 275.543 206.356C275.543 198.728 281.725 192.547 289.352 192.547C296.979 192.547 303.163 198.728 303.163 206.356Z" fill="#17A6A6" fill-opacity="0.12"/>
<path d="M282.988 233.091C282.988 237.171 279.681 240.477 275.601 240.477C271.523 240.477 268.216 237.171 268.216 233.091C268.216 229.012 271.523 225.705 275.601 225.705C279.681 225.705 282.988 229.012 282.988 233.091Z" fill="#105773"/>
<path d="M323.993 233.436C324.624 241.804 318.351 249.099 309.983 249.729C301.613 250.36 294.319 244.087 293.688 235.719C293.057 227.351 299.331 220.056 307.699 219.425C316.068 218.795 323.363 225.067 323.993 233.436Z" fill="#F29985" fill-opacity="0.82"/>
<path d="M302.497 308.347C302.497 311.472 299.964 314.004 296.84 314.004C293.716 314.004 291.183 311.472 291.183 308.347C291.183 305.223 293.716 302.691 296.84 302.691C299.964 302.691 302.497 305.223 302.497 308.347Z" fill="#105773"/>
<path d="M323.499 292.871C323.499 297.089 320.08 300.509 315.861 300.509C311.643 300.509 308.223 297.089 308.223 292.871C308.223 288.652 311.643 285.233 315.861 285.233C320.08 285.233 323.499 288.652 323.499 292.871Z" fill="#17A6A6" fill-opacity="0.12"/>
<path d="M383.688 270.08C383.688 281.104 374.749 290.041 363.724 290.041C352.699 290.041 343.763 281.104 343.763 270.08C343.763 259.055 352.699 250.117 363.724 250.117C374.749 250.117 383.688 259.055 383.688 270.08Z" fill="#F29985" fill-opacity="0.82"/>
<path d="M347.752 302.191C347.752 306.141 344.549 309.345 340.597 309.345C336.647 309.345 333.444 306.141 333.444 302.191C333.444 298.24 336.647 295.036 340.597 295.036C344.549 295.036 347.752 298.24 347.752 302.191Z" fill="#17A6A6" fill-opacity="0.12"/>
<path d="M387.019 314.836C387.019 320.073 382.772 324.32 377.533 324.32C372.297 324.32 368.051 320.073 368.051 314.836C368.051 309.597 372.297 305.352 377.533 305.352C382.772 305.352 387.019 309.597 387.019 314.836Z" fill="#17A6A6" fill-opacity="0.12"/>
<path d="M403.323 294.869C403.323 298.085 400.716 300.693 397.5 300.693C394.284 300.693 391.677 298.085 391.677 294.869C391.677 291.653 394.284 289.047 397.5 289.047C400.716 289.047 403.323 291.653 403.323 294.869Z" fill="#F29985" fill-opacity="0.82"/>
<path d="M329.976 266.585C329.976 273.032 324.749 278.259 318.303 278.259C311.856 278.259 306.629 273.032 306.629 266.585C306.629 260.139 311.856 254.912 318.303 254.912C324.749 254.912 329.976 260.139 329.976 266.585Z" fill="#17A6A6" fill-opacity="0.12"/>
<path d="M448.247 269.415C448.247 274.56 444.075 278.731 438.928 278.731C433.783 278.731 429.611 274.56 429.611 269.415C429.611 264.268 433.783 260.096 438.928 260.096C444.075 260.096 448.247 264.268 448.247 269.415Z" fill="#17A6A6" fill-opacity="0.12"/>
<path d="M435.708 293.872C435.708 298.433 432.011 302.132 427.448 302.132C422.887 302.132 419.189 298.433 419.189 293.872C419.189 289.309 422.887 285.611 427.448 285.611C432.011 285.611 435.708 289.309 435.708 293.872Z" fill="#F29985" fill-opacity="0.82"/>
<path d="M468.877 284.721C468.877 288.948 465.451 292.375 461.224 292.375C456.996 292.375 453.571 288.948 453.571 284.721C453.571 280.495 456.996 277.067 461.224 277.067C465.451 277.067 468.877 280.495 468.877 284.721Z" fill="#17A6A6" fill-opacity="0.12"/>
<path d="M446.251 328.145C446.251 333.384 442.004 337.631 436.765 337.631C431.528 337.631 427.283 333.384 427.283 328.145C427.283 322.908 431.528 318.663 436.765 318.663C442.004 318.663 446.251 322.908 446.251 328.145Z" fill="#17A6A6" fill-opacity="0.12"/>
<path d="M412.972 318.996C412.972 321.568 410.888 323.653 408.315 323.653C405.743 323.653 403.656 321.568 403.656 318.996C403.656 316.423 405.743 314.336 408.315 314.336C410.888 314.336 412.972 316.423 412.972 318.996Z" fill="#17A6A6" fill-opacity="0.12"/>
<path d="M410.976 343.952C410.976 350.2 405.912 355.265 399.663 355.265C393.415 355.265 388.349 350.2 388.349 343.952C388.349 337.704 393.415 332.639 399.663 332.639C405.912 332.639 410.976 337.704 410.976 343.952Z" fill="#F29985" fill-opacity="0.82"/>
<path d="M336.439 187.056C336.439 192.476 332.043 196.872 326.621 196.872C321.2 196.872 316.805 192.476 316.805 187.056C316.805 181.635 321.2 177.239 326.621 177.239C332.043 177.239 336.439 181.635 336.439 187.056Z" fill="#F29985" fill-opacity="0.82"/>
<path d="M263.896 200.865C263.896 205.46 260.172 209.184 255.577 209.184C250.983 209.184 247.257 205.46 247.257 200.865C247.257 196.271 250.983 192.547 255.577 192.547C260.172 192.547 263.896 196.271 263.896 200.865Z" fill="#F29985" fill-opacity="0.82"/>
<path d="M287.027 285.387C287.027 289.524 283.673 292.877 279.536 292.877C275.399 292.877 272.045 289.524 272.045 285.387C272.045 281.249 275.399 277.896 279.536 277.896C283.673 277.896 287.027 281.249 287.027 285.387Z" fill="#F29985" fill-opacity="0.82"/>
<path d="M285.525 313.005C285.525 318.703 280.907 323.321 275.211 323.321C269.513 323.321 264.895 318.703 264.895 313.005C264.895 307.308 269.513 302.691 275.211 302.691C280.907 302.691 285.525 307.308 285.525 313.005Z" fill="#17A6A6" fill-opacity="0.12"/>
<path d="M330.781 323.155C330.781 329.128 325.94 333.969 319.967 333.969C313.993 333.969 309.152 329.128 309.152 323.155C309.152 317.181 313.993 312.34 319.967 312.34C325.94 312.34 330.781 317.181 330.781 323.155Z" fill="#F29985" fill-opacity="0.82"/>
<path d="M358.843 174.133C358.592 176.833 358.081 179.511 357.315 182.113" stroke="#171717" stroke-width="2.66667" stroke-miterlimit="10" stroke-linecap="round" stroke-linejoin="round"/>
<path d="M337.161 167.904C339.119 169.397 340.967 171.037 342.68 172.805" stroke="#171717" stroke-width="2.66667" stroke-miterlimit="10" stroke-linecap="round" stroke-linejoin="round"/>
<path d="M223.596 303.769C223.544 301.469 223.723 299.163 224.132 296.899" stroke="#171717" stroke-width="2.66667" stroke-miterlimit="10" stroke-linecap="round" stroke-linejoin="round"/>
<path d="M241.024 308.689C243.268 310.001 246.136 309.272 248.504 308.199C250.911 307.109 253.173 305.699 255.211 304.017" stroke="#171717" stroke-width="2.66667" stroke-miterlimit="10" stroke-linecap="round" stroke-linejoin="round"/>
<path d="M233.269 279.292C235.559 281.237 236.525 284.417 236.383 287.419C236.24 290.42 235.12 293.288 233.829 296.001" stroke="#171717" stroke-width="2.66667" stroke-miterlimit="10" stroke-linecap="round"/>
<path d="M205.455 282.259C204.635 285.736 205.427 289.56 207.56 292.427" stroke="#171717" stroke-width="2.66667" stroke-miterlimit="10" stroke-linecap="round"/>
<path d="M463.937 301.728C461.371 300.877 453.539 298.348 451.088 297.205" stroke="#171717" stroke-width="2.66667" stroke-miterlimit="10" stroke-linecap="round"/>
<path d="M415.505 196.577C414.209 195.217 411.952 195.967 410.267 196.799C406.04 198.888 401.813 200.977 397.587 203.067" stroke="#171717" stroke-width="2.66667" stroke-miterlimit="10" stroke-linecap="round"/>
<path d="M402.92 540.761C395.996 548.581 383.999 549.309 376.179 542.384C368.36 535.459 367.632 523.463 374.557 515.641C381.483 507.821 393.479 507.093 401.3 514.02C409.12 520.945 409.848 532.941 402.92 540.761ZM411.911 554.365C409.372 552.333 408.963 548.628 410.995 546.089C413.028 543.552 416.733 543.141 419.271 545.174C419.483 545.344 419.657 545.54 419.839 545.732C421.011 543.657 421.955 541.503 422.675 539.295C422.387 539.295 422.099 539.296 421.805 539.249C418.591 538.759 416.384 535.755 416.875 532.541C417.365 529.327 420.369 527.12 423.584 527.611C423.879 527.655 424.155 527.744 424.431 527.828C424.404 525.461 424.141 523.103 423.651 520.787C423.384 520.943 423.115 521.096 422.817 521.212C419.788 522.395 416.373 520.897 415.193 517.868C414.011 514.839 415.508 511.424 418.536 510.244C418.832 510.128 419.133 510.059 419.433 509.993C418.235 507.973 416.823 506.053 415.203 504.268C415.047 504.549 414.881 504.827 414.675 505.085C412.641 507.625 408.936 508.033 406.399 506.001C403.86 503.969 403.449 500.264 405.481 497.725C405.681 497.477 405.908 497.267 406.136 497.06C404.032 495.884 401.845 494.941 399.608 494.228C399.612 494.545 399.608 494.865 399.559 495.192C399.068 498.405 396.064 500.613 392.849 500.123C389.636 499.632 387.427 496.628 387.917 493.413C387.965 493.111 388.053 492.827 388.141 492.544C385.776 492.585 383.42 492.865 381.108 493.371C381.257 493.631 381.409 493.892 381.521 494.18C382.703 497.209 381.205 500.623 378.176 501.804C375.147 502.987 371.733 501.488 370.551 498.46C370.448 498.193 370.391 497.923 370.327 497.653C368.339 498.853 366.449 500.257 364.692 501.867C364.929 502.008 365.172 502.144 365.395 502.323C367.932 504.356 368.343 508.06 366.309 510.599C364.277 513.137 360.572 513.547 358.033 511.515C357.839 511.357 357.679 511.175 357.508 510.999C356.367 513.064 355.449 515.207 354.752 517.4C355.001 517.407 355.248 517.4 355.499 517.437C358.713 517.929 360.921 520.932 360.429 524.147C359.939 527.361 356.935 529.569 353.721 529.079C353.499 529.044 353.295 528.971 353.083 528.915C353.129 531.223 353.4 533.524 353.888 535.783C354.085 535.677 354.273 535.56 354.488 535.474C357.517 534.295 360.931 535.792 362.113 538.82C363.295 541.85 361.797 545.264 358.768 546.445C358.572 546.522 358.371 546.557 358.172 546.612C359.344 548.561 360.716 550.413 362.283 552.14C362.397 551.96 362.495 551.773 362.631 551.603C364.663 549.065 368.368 548.655 370.907 550.688C373.445 552.72 373.855 556.424 371.823 558.962C371.693 559.122 371.543 559.248 371.403 559.391C373.437 560.526 375.551 561.447 377.712 562.149C377.721 561.932 377.712 561.717 377.747 561.497C378.237 558.283 381.241 556.076 384.456 556.567C387.669 557.057 389.877 560.061 389.387 563.274C389.355 563.491 389.281 563.689 389.227 563.896C391.537 563.862 393.841 563.608 396.103 563.133C395.993 562.926 395.871 562.732 395.784 562.509C394.601 559.479 396.1 556.065 399.129 554.884C402.159 553.701 405.572 555.198 406.753 558.229C406.843 558.456 406.887 558.686 406.945 558.914C408.925 557.744 410.808 556.365 412.564 554.789C412.343 554.655 412.119 554.531 411.911 554.365Z" fill="#17A6A6"/>
<path d="M400.596 538.703C394.797 545.25 384.787 545.86 378.239 540.059C371.689 534.259 371.081 524.248 376.881 517.7C382.683 511.152 392.692 510.544 399.241 516.345C405.789 522.144 406.396 532.155 400.596 538.703Z" stroke="#040606" stroke-width="1.33333" stroke-miterlimit="10"/>
<path d="M342.741 453.173C353.197 458.101 357.693 470.621 352.764 481.079C347.836 491.536 335.319 496.033 324.86 491.104C314.403 486.175 309.905 473.656 314.835 463.199C319.764 452.743 332.283 448.244 342.741 453.173ZM298.635 453.019C298.411 452.839 298.228 452.629 298.033 452.427C296.727 454.791 295.677 457.245 294.879 459.755C295.164 459.761 295.445 459.753 295.733 459.799C299.413 460.36 301.94 463.799 301.379 467.477C300.816 471.157 297.377 473.684 293.699 473.123C293.444 473.083 293.211 473 292.968 472.933C293.021 475.579 293.331 478.211 293.889 480.796C294.116 480.676 294.332 480.54 294.576 480.445C298.044 479.092 301.951 480.805 303.304 484.273C304.657 487.741 302.943 491.648 299.475 493.001C299.249 493.089 299.021 493.129 298.792 493.192C300.135 495.421 301.705 497.543 303.499 499.521C303.629 499.313 303.74 499.1 303.897 498.905C306.223 496 310.464 495.529 313.369 497.857C316.275 500.184 316.744 504.424 314.417 507.329C314.272 507.512 314.097 507.656 313.937 507.819C316.267 509.12 318.685 510.173 321.16 510.977C321.171 510.729 321.16 510.483 321.199 510.231C321.76 506.551 325.199 504.025 328.879 504.585C332.557 505.148 335.084 508.587 334.523 512.265C334.485 512.513 334.403 512.74 334.34 512.975C336.985 512.939 339.621 512.647 342.211 512.103C342.084 511.867 341.944 511.643 341.845 511.388C340.492 507.92 342.207 504.013 345.673 502.66C349.141 501.307 353.049 503.023 354.403 506.489C354.503 506.748 354.553 507.013 354.621 507.276C356.887 505.933 359.041 504.357 361.052 502.552C360.8 502.399 360.541 502.257 360.304 502.068C357.4 499.741 356.929 495.5 359.256 492.595C361.583 489.689 365.824 489.22 368.729 491.547C368.971 491.741 369.172 491.965 369.38 492.184C370.721 489.811 371.803 487.343 372.627 484.816C372.297 484.815 371.967 484.817 371.632 484.765C367.952 484.203 365.424 480.765 365.987 477.085C366.548 473.407 369.987 470.88 373.667 471.443C374.004 471.493 374.319 471.593 374.636 471.692C374.604 468.983 374.304 466.281 373.743 463.632C373.437 463.811 373.129 463.987 372.789 464.119C369.321 465.472 365.415 463.757 364.061 460.291C362.708 456.823 364.421 452.915 367.889 451.563C368.228 451.431 368.572 451.352 368.915 451.277C367.543 448.965 365.928 446.768 364.073 444.724C363.895 445.045 363.705 445.363 363.468 445.66C361.141 448.565 356.901 449.033 353.995 446.708C351.089 444.381 350.62 440.14 352.947 437.236C353.175 436.951 353.432 436.711 353.693 436.472C351.287 435.127 348.784 434.048 346.223 433.231C346.227 433.595 346.223 433.963 346.167 434.333C345.604 438.013 342.165 440.54 338.487 439.977C334.807 439.415 332.28 435.977 332.841 432.299C332.895 431.952 332.997 431.628 333.099 431.304C330.391 431.352 327.693 431.672 325.047 432.251C325.219 432.548 325.391 432.847 325.52 433.176C326.872 436.643 325.159 440.551 321.691 441.904C318.223 443.256 314.316 441.543 312.963 438.076C312.844 437.771 312.779 437.463 312.705 437.153C310.429 438.525 308.268 440.135 306.255 441.975C306.528 442.137 306.805 442.293 307.06 442.496C309.965 444.823 310.435 449.064 308.108 451.971C305.781 454.875 301.54 455.344 298.635 453.019Z" fill="#17A6A6"/>
<path d="M347.208 484.093C340.679 491.468 329.408 492.151 322.033 485.621C314.66 479.091 313.976 467.819 320.507 460.445C327.037 453.073 338.308 452.389 345.683 458.919C353.056 465.449 353.74 476.72 347.208 484.093Z" stroke="#040606" stroke-width="1.33333" stroke-miterlimit="10"/>
<path d="M197.121 425.945V402.255C197.121 397.349 193.144 393.371 188.237 393.371H167.848H149.455C144.221 393.371 139.979 389.129 139.979 383.896V273.795" stroke="#105773" stroke-width="2.66667" stroke-miterlimit="10" stroke-linecap="round"/>
<path d="M232.431 466.591H91.3339V431.912H232.431V466.591Z" fill="#17A6A6"/>
<path d="M100.971 452.421V454.287H195.807V452.421H100.971Z" fill="#171717"/>
<path d="M195.807 449.065V443.845H100.971V449.065H195.807Z" fill="#DECDEA"/>
<path d="M208.915 452.421V454.287H221.028V452.421H208.915Z" fill="#171717"/>
<path d="M221.028 449.065V443.845H208.915V449.065H221.028Z" fill="#DECDEA"/>
<path d="M236.896 468.751H94.6828V434.072H236.896V468.751Z" stroke="#040606" stroke-width="1.33333" stroke-miterlimit="10"/>
<path d="M232.431 505.001H91.3339V470.32H232.431V505.001Z" fill="#105773"/>
<path d="M100.971 490.831V492.695H195.807V490.831H100.971Z" fill="#171717"/>
<path d="M195.807 487.473V482.253H100.971V487.473H195.807Z" fill="#DECDEA"/>
<path d="M208.915 490.831V492.695H221.028V490.831H208.915Z" fill="#171717"/>
<path d="M221.028 487.473V482.253H208.915V487.473H221.028Z" fill="#DECDEA"/>
<path d="M236.896 507.16H94.6828V472.48H236.896V507.16Z" stroke="#040606" stroke-width="1.33333" stroke-miterlimit="10"/>
<path d="M232.431 543.41H91.3339V508.731H232.431V543.41Z" fill="#17A6A6"/>
<path d="M100.971 529.24V531.104H195.807V529.24H100.971Z" fill="#171717"/>
<path d="M195.807 525.884V520.663H100.971V525.884H195.807Z" fill="#DECDEA"/>
<path d="M208.915 529.24V531.104H221.028V529.24H208.915Z" fill="#171717"/>
<path d="M221.028 525.884V520.663H208.915V525.884H221.028Z" fill="#DECDEA"/>
<path d="M236.896 545.571H94.6828V510.889H236.896V545.571Z" stroke="#040606" stroke-width="1.33333" stroke-miterlimit="10"/>
<path d="M232.431 581.819H91.3339V547.138H232.431V581.819Z" fill="#105773"/>
<path d="M100.971 567.648V569.514H195.807V567.648H100.971Z" fill="#171717"/>
<path d="M195.807 564.293V559.072H100.971V564.293H195.807Z" fill="#DECDEA"/>
<path d="M208.915 567.648V569.514H221.028V567.648H208.915Z" fill="#171717"/>
<path d="M221.028 564.293V559.072H208.915V564.293H221.028Z" fill="#DECDEA"/>
<path d="M236.896 583.979H94.6828V549.3H236.896V583.979Z" stroke="#040606" stroke-width="1.33333" stroke-miterlimit="10"/>
<path d="M195.072 156.563C180.476 156.563 168.644 143.38 168.644 143.38C168.644 143.38 180.476 130.195 195.072 130.195C209.667 130.195 221.5 143.38 221.5 143.38C221.5 143.38 209.667 156.563 195.072 156.563Z" stroke="#040606" stroke-width="1.33333" stroke-miterlimit="10"/>
<path d="M187.032 134.119C191.412 128.995 198.511 128.995 202.889 134.119C207.268 139.243 207.268 147.549 202.889 152.673C198.511 157.797 191.412 157.797 187.032 152.673C182.653 147.549 182.653 139.243 187.032 134.119Z" fill="#17A6A6"/>
<path d="M261.251 139.66C246.656 139.66 234.824 126.475 234.824 126.475C234.824 126.475 246.656 113.292 261.251 113.292C275.848 113.292 287.68 126.475 287.68 126.475C287.68 126.475 275.848 139.66 261.251 139.66Z" stroke="#040606" stroke-width="1.33333" stroke-miterlimit="10"/>
<path d="M253.212 117.215C257.591 112.091 264.691 112.091 269.069 117.215C273.448 122.339 273.448 130.645 269.069 135.769C264.691 140.893 257.591 140.893 253.212 135.769C248.833 130.645 248.833 122.339 253.212 117.215Z" fill="#17A6A6"/>
<path d="M471.671 465.409H426.729C422.892 465.409 419.783 462.831 419.783 459.649V398.431" stroke="#105773" stroke-width="2.66667" stroke-miterlimit="10"/>
<path d="M589.427 429.335H473.421C468.844 429.335 465.097 425.691 464.972 421.113L464.181 392.372C464.049 387.615 467.871 383.687 472.632 383.687H589.427C594.095 383.687 597.88 387.472 597.88 392.139V420.881C597.88 425.549 594.095 429.335 589.427 429.335Z" fill="#F29985" fill-opacity="0.82"/>
<path d="M569.964 406.191C569.441 410.849 565.221 414.728 560.735 414.673C556.247 414.617 552.116 410.637 551.697 405.967C551.541 404.212 552.052 402.144 553.6 401.449C555.148 400.753 557.036 401.897 557.689 403.523C558.34 405.145 558.009 407.032 557.34 408.649C555.305 413.567 550.021 416.779 544.925 416.195C539.832 415.612 535.337 411.28 534.368 406.02C534.037 404.22 534.229 402.049 535.679 401.019C537.473 399.74 540.157 401.248 540.784 403.423C541.411 405.599 540.499 407.96 539.185 409.769C536.452 413.536 531.817 415.463 527.36 415.26C525.359 415.171 522.739 414.684 521.075 413.477C518.632 411.709 516.189 406.023 518.108 403.164C518.487 402.599 519.099 402.157 519.757 402.187C520.207 402.204 520.628 402.437 520.969 402.745C521.844 403.531 522.239 404.78 522.272 405.985C522.343 408.473 520.945 411.255 519.376 413.079C516.455 416.472 511.38 417.484 507.353 415.716C503.327 413.947 500.515 409.641 500.119 405.093C499.971 403.389 500.667 401.119 502.303 401.205C503.508 401.269 504.224 402.647 504.489 403.877C505.255 407.429 504.171 411.359 501.709 413.935C499.249 416.513 495.493 417.656 492.095 416.863" stroke="#040606" stroke-width="1.33333" stroke-miterlimit="10" stroke-linecap="round"/>
<path d="M473.216 438.825H588.841C593.147 438.825 596.639 442.193 596.639 446.345V466.163C596.639 470.245 593.261 473.581 589.031 473.681L474.747 476.36C470.543 476.459 467.015 473.323 466.773 469.273L465.432 446.777C465.176 442.461 468.735 438.825 473.216 438.825Z" fill="#F29985" fill-opacity="0.82"/>
<path d="M484.972 462.877C485.537 458.773 488.583 455.111 492.515 453.804C496.447 452.499 501.077 453.612 503.985 456.564C505.352 457.949 506.379 459.948 505.815 461.811C505.252 463.673 502.483 464.693 501.261 463.179C500.568 462.316 500.639 461.068 500.929 459.999C501.855 456.599 504.751 453.813 508.187 453.027C511.62 452.239 515.443 453.483 517.755 456.14C518.747 457.279 519.484 458.887 518.895 460.276C518.304 461.665 515.875 461.977 515.415 460.54C515.18 459.808 515.544 459.027 515.952 458.373C520.223 451.544 530.939 449.985 536.977 455.316C538.323 456.505 539.503 458.199 539.188 459.967C538.872 461.733 536.301 462.888 535.193 461.476C534.18 460.189 535.24 458.321 536.404 457.169C539.176 454.428 542.724 452.479 546.524 451.609C549.62 450.9 553.101 450.971 555.693 452.808C558.284 454.647 559.443 458.643 557.475 461.136C557.151 461.545 556.735 461.915 556.227 462.035C554.256 462.501 553.575 459.371 554.409 457.527C557.413 450.899 567.755 449.305 572.613 454.725" stroke="#040606" stroke-width="1.33333" stroke-miterlimit="10" stroke-linecap="round"/>
<path d="M466.044 494.256V525.464C466.044 529.596 469.52 532.955 473.828 532.983L588.121 533.745C592.531 533.773 596.099 530.307 596.013 526.077L595.415 496.779C595.332 492.755 591.963 489.508 587.768 489.409L474.075 486.74C469.671 486.637 466.044 490.032 466.044 494.256Z" fill="#F29985" fill-opacity="0.82"/>
<path d="M485.104 503.045C484.049 508.727 488.623 514.807 494.375 515.368C500.127 515.929 505.789 510.849 505.853 505.071C505.859 504.493 505.813 503.905 505.587 503.375C504.639 501.157 500.932 501.564 499.791 503.689C498.649 505.813 499.524 508.519 501.028 510.404C503.667 513.712 508.225 515.364 512.371 514.515C516.517 513.664 520.059 510.351 521.183 506.271C521.556 504.916 521.331 502.992 519.945 502.757C518.801 502.564 517.916 503.765 517.573 504.875C516.032 509.877 520.052 515.564 525.204 516.481C530.357 517.4 535.719 514.08 537.943 509.343C538.677 507.777 539.204 503.389 536.199 504.069C532.809 504.835 534.672 510.896 536.147 512.589C538.387 515.159 542.031 516.112 545.433 515.949C548.709 515.793 552.057 514.637 554.259 512.207C555.635 510.691 558.475 504.324 555.028 503.669C551.625 503.023 551.208 508.251 552.179 510.455C555.525 518.061 566.291 517.081 570.551 510.968C571.384 509.773 572.525 507.076 571.831 505.589C570.787 503.356 568.247 504.589 567.432 506.104C566.125 508.535 566.163 511.393 567.751 513.679C570.172 517.163 575.263 518.471 579.065 516.584" stroke="#040606" stroke-width="1.33333" stroke-miterlimit="10" stroke-linecap="round"/>
<path d="M560.251 391.793C560.717 382.296 564.432 373.183 569.523 365.149C574.613 357.117 581.056 350.044 587.516 343.067C578.924 356.783 575.325 373.552 577.529 389.585" fill="#F29985" fill-opacity="0.82"/>
<path d="M483.405 524.081C487.708 538.771 485.737 555.186 478.081 568.44C490.712 558.777 498.86 543.477 499.824 527.603" fill="#F29985" fill-opacity="0.82"/>
<path d="M558.369 165.124V207.924C558.369 214.108 553.359 219.12 547.175 219.12H452.24" stroke="#105773" stroke-width="2.66667" stroke-miterlimit="10" stroke-linecap="round"/>
<path d="M526.844 162.633V187.203C526.844 192.497 531.135 196.788 536.428 196.788H567.176C572.471 196.788 576.761 192.497 576.761 187.203V142.3" stroke="#105773" stroke-width="2.66667" stroke-miterlimit="10" stroke-linecap="round"/>
<path d="M81.5052 171.393V153.663C80.7703 153.46 80.0031 153.763 79.5568 154.399C78.0849 156.492 75.6959 157.852 72.9953 157.845C68.7552 157.833 65.1688 154.327 64.9453 149.96C64.6989 145.151 68.4079 141.171 73.0177 141.171C75.7088 141.171 78.0885 142.529 79.5568 144.617C80.0031 145.252 80.7703 145.556 81.5052 145.353V127.623H123.945V145.353C124.68 145.556 125.447 145.252 125.894 144.617C127.362 142.529 129.742 141.171 132.433 141.171C137.043 141.171 140.752 145.151 140.505 149.96C140.282 154.327 136.695 157.833 132.455 157.845C129.755 157.852 127.366 156.492 125.894 154.399C125.447 153.763 124.68 153.46 123.945 153.663V171.393H81.5052Z" fill="#17A6A6"/>
<path d="M121.609 197.965C120.021 200.185 117.385 201.583 114.435 201.395C110.291 201.135 106.917 197.631 106.748 193.421C106.558 188.66 110.307 184.737 114.96 184.737C117.696 184.737 120.116 186.097 121.608 188.184C122.063 188.819 122.842 189.123 123.59 188.92V171.189H106.588C106.388 170.432 106.687 169.64 107.313 169.18C109.37 167.667 110.71 165.212 110.71 162.436C110.71 157.681 106.787 153.857 102.046 154.111C97.7412 154.341 94.2844 158.04 94.2729 162.413C94.2656 165.197 95.6073 167.663 97.6703 169.18C98.2964 169.64 98.5953 170.432 98.3953 171.189H80.9172V188.92C81.6645 189.123 82.4437 188.82 82.8984 188.184C84.3953 186.091 86.8235 184.731 89.5697 184.737C93.8807 184.749 97.5265 188.256 97.7536 192.623C98.0047 197.432 94.2339 201.412 89.5469 201.412C86.8104 201.412 84.3912 200.053 82.8984 197.965C82.4437 197.331 81.6645 197.028 80.9172 197.229V214.96H123.59V197.229C122.842 197.028 122.063 197.331 121.609 197.965Z" fill="#F29985" fill-opacity="0.82"/>
<path d="M116.437 236.909C119.174 236.909 121.594 238.268 123.086 240.356C123.541 240.991 124.32 241.293 125.067 241.091V223.361H142.546C142.546 222.607 142.086 221.58 141.506 221.108C138.237 218.452 137.009 213.324 140.617 208.503C147.397 203.26 154.86 208.049 154.86 214.608C154.86 217.383 153.52 219.837 151.463 221.352C150.836 221.812 150.537 222.603 150.737 223.361H168.216V267.132H125.067V249.401C124.32 249.199 123.541 249.501 123.086 250.137C121.561 252.269 119.069 253.641 116.259 253.581C111.951 253.489 108.343 249.856 108.222 245.485C108.092 240.772 111.82 236.909 116.437 236.909Z" fill="#17A6A6"/>
<path d="M146.876 270.116C146.876 273.815 143.877 276.815 140.177 276.815C136.478 276.815 133.479 273.815 133.479 270.116C133.479 266.416 136.478 263.417 140.177 263.417C143.877 263.417 146.876 266.416 146.876 270.116Z" fill="#105773"/>
<path d="M173.587 428.532C173.587 432.232 170.587 435.232 166.888 435.232C163.188 435.232 160.189 432.232 160.189 428.532C160.189 424.833 163.188 421.835 166.888 421.835C170.587 421.835 173.587 424.833 173.587 428.532Z" fill="#105773"/>
<path d="M203.032 428.532C203.032 432.232 200.033 435.232 196.333 435.232C192.635 435.232 189.635 432.232 189.635 428.532C189.635 424.833 192.635 421.835 196.333 421.835C200.033 421.835 203.032 424.833 203.032 428.532Z" fill="#105773"/>
<path d="M461.161 398.401C461.161 402.101 458.161 405.1 454.463 405.1C450.763 405.1 447.763 402.101 447.763 398.401C447.763 394.701 450.763 391.703 454.463 391.703C458.161 391.703 461.161 394.701 461.161 398.401Z" fill="#105773"/>
<path d="M467.84 466.395C467.84 470.093 464.841 473.093 461.141 473.093C457.441 473.093 454.443 470.093 454.443 466.395C454.443 462.695 457.441 459.695 461.141 459.695C464.841 459.695 467.84 462.695 467.84 466.395Z" fill="#105773"/>
<path d="M474.52 515.367C474.52 519.067 471.521 522.067 467.82 522.067C464.121 522.067 461.123 519.067 461.123 515.367C461.123 511.668 464.121 508.668 467.82 508.668C471.521 508.668 474.52 511.668 474.52 515.367Z" fill="#105773"/>
<path d="M533.541 162.633C533.541 166.333 530.543 169.332 526.844 169.332C523.143 169.332 520.144 166.333 520.144 162.633C520.144 158.935 523.143 155.935 526.844 155.935C530.543 155.935 533.541 158.935 533.541 162.633Z" fill="#105773"/>
<path d="M565.069 162.633C565.069 166.333 562.071 169.332 558.369 169.332C554.671 169.332 551.672 166.333 551.672 162.633C551.672 158.935 554.671 155.935 558.369 155.935C562.071 155.935 565.069 158.935 565.069 162.633Z" fill="#105773"/>
<path d="M585.184 141.077C585.184 144.777 582.185 147.776 578.485 147.776C574.785 147.776 571.787 144.777 571.787 141.077C571.787 137.377 574.785 134.379 578.485 134.379C582.185 134.379 585.184 137.377 585.184 141.077Z" fill="#105773"/>
<path d="M528.733 317.403V273.041H522.415V317.403H528.733Z" fill="#F29985" fill-opacity="0.82"/>
<path d="M540.795 317.403V293.527H534.476V317.403H540.795Z" fill="#F29985" fill-opacity="0.82"/>
<path d="M552.857 317.403V277.371H546.537V317.403H552.857Z" fill="#F29985" fill-opacity="0.82"/>
<path d="M564.917 317.403V260.005H558.6V317.403H564.917Z" fill="#F29985" fill-opacity="0.82"/>
<path d="M576.98 317.403V288.847H570.663V317.403H576.98Z" fill="#F29985" fill-opacity="0.82"/>
<path d="M589.572 316.835H515.963V262.792" stroke="#171717" stroke-width="1.33333" stroke-miterlimit="10"/>
<path d="M281.193 404.839L269.055 416.975" stroke="#171717" stroke-width="1.33333" stroke-miterlimit="10" stroke-linecap="round" stroke-linejoin="round"/>
<path d="M290.227 404.839L278.088 416.975" stroke="#171717" stroke-width="1.33333" stroke-miterlimit="10" stroke-linecap="round" stroke-linejoin="round"/>
<path d="M310.159 404.839L298.02 416.975" stroke="#171717" stroke-width="1.33333" stroke-miterlimit="10" stroke-linecap="round" stroke-linejoin="round"/>
<path d="M510.832 344.547L522.225 355.064L510.832 365.581" stroke="#171717" stroke-width="1.33333" stroke-miterlimit="10" stroke-linecap="round" stroke-linejoin="round"/>
<path d="M503.137 344.547L514.529 355.064L503.137 365.581" stroke="#171717" stroke-width="1.33333" stroke-miterlimit="10" stroke-linecap="round" stroke-linejoin="round"/>
<path d="M488.1 354.14C488.1 356.549 486.147 358.501 483.74 358.501C481.331 358.501 479.379 356.549 479.379 354.14C479.379 351.732 481.331 349.78 483.74 349.78C486.147 349.78 488.1 351.732 488.1 354.14Z" stroke="#171717" stroke-width="1.33333" stroke-miterlimit="10" stroke-linecap="round" stroke-linejoin="round"/>
<path d="M494.639 354.736H507.447" stroke="#171717" stroke-width="1.33333" stroke-miterlimit="10" stroke-linecap="round" stroke-linejoin="round"/>
<path d="M107.266 323.819L96.8505 333.433L107.266 343.048" stroke="#171717" stroke-width="1.33333" stroke-miterlimit="10" stroke-linecap="round" stroke-linejoin="round"/>
<path d="M114.302 323.819L103.885 333.433L114.302 343.048" stroke="#171717" stroke-width="1.33333" stroke-miterlimit="10" stroke-linecap="round" stroke-linejoin="round"/>
<path d="M164.673 323.819L175.071 333.433L164.673 343.048" stroke="#171717" stroke-width="1.33333" stroke-miterlimit="10" stroke-linecap="round" stroke-linejoin="round"/>
<path d="M122.598 333.389C122.598 335.565 120.834 337.329 118.658 337.329C116.481 337.329 114.717 335.565 114.717 333.389C114.717 331.213 116.481 329.448 118.658 329.448C120.834 329.448 122.598 331.213 122.598 333.389Z" stroke="#171717" stroke-width="1.33333" stroke-miterlimit="10" stroke-linecap="round" stroke-linejoin="round"/>
<path d="M129.449 333.389H144.885" stroke="#171717" stroke-width="1.33333" stroke-miterlimit="10" stroke-linecap="round" stroke-linejoin="round"/>
<path d="M151.452 333.389H160.648" stroke="#171717" stroke-width="1.33333" stroke-miterlimit="10" stroke-linecap="round" stroke-linejoin="round"/>
<path d="M406.724 115.655C406.724 117.768 405.011 119.48 402.899 119.48C400.785 119.48 399.073 117.768 399.073 115.655C399.073 113.541 400.785 111.828 402.899 111.828C405.011 111.828 406.724 113.541 406.724 115.655Z" stroke="#171717" stroke-width="1.33333" stroke-miterlimit="10" stroke-linecap="round" stroke-linejoin="round"/>
<path d="M345.203 105.8L332.451 121.741" stroke="#171717" stroke-width="1.33333" stroke-miterlimit="10" stroke-linecap="round" stroke-linejoin="round"/>
<path d="M357.956 105.8L345.203 121.741" stroke="#171717" stroke-width="1.33333" stroke-miterlimit="10" stroke-linecap="round" stroke-linejoin="round"/>
<path d="M365.607 105.8L352.856 121.741" stroke="#171717" stroke-width="1.33333" stroke-miterlimit="10" stroke-linecap="round" stroke-linejoin="round"/>
<path d="M368.957 115.983H392.603" stroke="#171717" stroke-width="1.33333" stroke-miterlimit="10" stroke-linecap="round" stroke-linejoin="round"/>
<path d="M266.327 550.18C266.327 552.292 268.063 554.005 270.204 554.005C272.345 554.005 274.081 552.292 274.081 550.18C274.081 548.067 272.345 546.355 270.204 546.355C268.063 546.355 266.327 548.067 266.327 550.18Z" stroke="#171717" stroke-width="1.33333" stroke-miterlimit="10" stroke-linecap="round" stroke-linejoin="round"/>
<path d="M315.757 540.325L328.683 556.265" stroke="#171717" stroke-width="1.33333" stroke-miterlimit="10" stroke-linecap="round" stroke-linejoin="round"/>
<path d="M308.001 540.325L320.928 556.265" stroke="#171717" stroke-width="1.33333" stroke-miterlimit="10" stroke-linecap="round" stroke-linejoin="round"/>
<path d="M304.607 550.508H280.64" stroke="#171717" stroke-width="1.33333" stroke-miterlimit="10" stroke-linecap="round" stroke-linejoin="round"/>
</g>
<defs>
<clipPath id="clip0_11_181">
<rect width="666.667" height="666.667" fill="white"/>
</clipPath>
</defs>
</svg>
